<svg version="1.1" viewBox="0.0 0.0 606.3149606299213 234.38582677165354" fill="none" stroke="none" stroke-linecap="square" stroke-miterlimit="10" xmlns:xlink="http://www.w3.org/1999/xlink" xmlns="http://www.w3.org/2000/svg"><clipPath id="p.0"><path d="m0 0l606.31494 0l0 234.38583l-606.31494 0l0 -234.38583z" clip-rule="nonzero"/></clipPath><g clip-path="url(#p.0)"><path fill="#000000" fill-opacity="0.0" d="m0 0l606.31494 0l0 234.38583l-606.31494 0z" fill-rule="evenodd"/><path fill="#cfe2f3" d="m26.139107 55.107613l44.850395 0l0 41.921257l-44.850395 0z" fill-rule="evenodd"/><path stroke="#000000" stroke-width="1.0" stroke-linejoin="round" stroke-linecap="butt" d="m26.139107 55.107613l44.850395 0l0 41.921257l-44.850395 0z" fill-rule="evenodd"/><path fill="#000000" d="m45.834423 82.988235l-1.640625 0l0 -10.453125q-0.59375 0.5625 -1.5625 1.140625q-0.953125 0.5625 -1.71875 0.84375l0 -1.59375q1.375 -0.640625 2.40625 -1.5625q1.03125 -0.921875 1.453125 -1.78125l1.0625 0l0 13.40625zm8.990295 0l-1.640625 0l0 -10.453125q-0.59375 0.5625 -1.5625 1.140625q-0.953125 0.5625 -1.71875 0.84375l0 -1.59375q1.375 -0.640625 2.40625 -1.5625q1.03125 -0.921875 1.453125 -1.78125l1.0625 0l0 13.40625z" fill-rule="nonzero"/><path fill="#cfe2f3" d="m70.9895 55.107613l44.850395 0l0 41.921257l-44.850395 0z" fill-rule="evenodd"/><path stroke="#000000" stroke-width="1.0" stroke-linejoin="round" stroke-linecap="butt" d="m70.9895 55.107613l44.850395 0l0 41.921257l-44.850395 0z" fill-rule="evenodd"/><path fill="#000000" d="m89.9921 82.988235l-1.640625 0l0 -10.453125q-0.59375 0.5625 -1.5625 1.140625q-0.953125 0.5625 -1.71875 0.84375l0 -1.59375q1.375 -0.640625 2.40625 -1.5625q1.03125 -0.921875 1.453125 -1.78125l1.0625 0l0 13.40625zm12.813217 -1.578125l0 1.578125l-8.828125 0q-0.015625 -0.59375 0.1875 -1.140625q0.34375 -0.90625 1.078125 -1.78125q0.75 -0.875 2.15625 -2.015625q2.171875 -1.78125 2.9375 -2.828125q0.765625 -1.046875 0.765625 -1.96875q0 -0.984375 -0.703125 -1.640625q-0.6875 -0.671875 -1.8125 -0.671875q-1.1875 0 -1.90625 0.71875q-0.703125 0.703125 -0.703125 1.953125l-1.6875 -0.171875q0.171875 -1.890625 1.296875 -2.875q1.140625 -0.984375 3.03125 -0.984375q1.921875 0 3.046875 1.0625q1.125 1.0625 1.125 2.640625q0 0.796875 -0.328125 1.578125q-0.328125 0.78125 -1.09375 1.640625q-0.75 0.84375 -2.53125 2.34375q-1.46875 1.234375 -1.890625 1.6875q-0.421875 0.4375 -0.6875 0.875l6.546875 0z" fill-rule="nonzero"/><path fill="#cfe2f3" d="m115.8399 55.107613l44.850395 0l0 41.921257l-44.850395 0z" fill-rule="evenodd"/><path stroke="#000000" stroke-width="1.0" stroke-linejoin="round" stroke-linecap="butt" d="m115.8399 55.107613l44.850395 0l0 41.921257l-44.850395 0z" fill-rule="evenodd"/><path fill="#000000" d="m134.8425 82.988235l-1.640625 0l0 -10.453125q-0.59375 0.5625 -1.5625 1.140625q-0.953125 0.5625 -1.71875 0.84375l0 -1.59375q1.375 -0.640625 2.40625 -1.5625q1.03125 -0.921875 1.453125 -1.78125l1.0625 0l0 13.40625zm4.203842 -3.53125l1.640625 -0.21875q0.28125 1.40625 0.953125 2.015625q0.6875 0.609375 1.65625 0.609375q1.15625 0 1.953125 -0.796875q0.796875 -0.796875 0.796875 -1.984375q0 -1.125 -0.734375 -1.859375q-0.734375 -0.734375 -1.875 -0.734375q-0.46875 0 -1.15625 0.171875l0.1875 -1.4375q0.15625 0.015625 0.265625 0.015625q1.046875 0 1.875 -0.546875q0.84375 -0.546875 0.84375 -1.671875q0 -0.90625 -0.609375 -1.5q-0.609375 -0.59375 -1.578125 -0.59375q-0.953125 0 -1.59375 0.609375q-0.640625 0.59375 -0.8125 1.796875l-1.640625 -0.296875q0.296875 -1.640625 1.359375 -2.546875q1.0625 -0.90625 2.65625 -0.90625q1.09375 0 2.0 0.46875q0.921875 0.46875 1.40625 1.28125q0.5 0.8125 0.5 1.71875q0 0.859375 -0.46875 1.578125q-0.46875 0.703125 -1.375 1.125q1.1875 0.28125 1.84375 1.140625q0.65625 0.859375 0.65625 2.15625q0 1.734375 -1.28125 2.953125q-1.265625 1.21875 -3.21875 1.21875q-1.765625 0 -2.921875 -1.046875q-1.15625 -1.046875 -1.328125 -2.71875z" fill-rule="nonzero"/><path fill="#cfe2f3" d="m160.69029 55.107613l44.850388 0l0 41.921257l-44.850388 0z" fill-rule="evenodd"/><path stroke="#000000" stroke-width="1.0" stroke-linejoin="round" stroke-linecap="butt" d="m160.69029 55.107613l44.850388 0l0 41.921257l-44.850388 0z" fill-rule="evenodd"/><path fill="#000000" d="m179.6929 82.988235l-1.640625 0l0 -10.453125q-0.59375 0.5625 -1.5625153 1.140625q-0.953125 0.5625 -1.71875 0.84375l0 -1.59375q1.375 -0.640625 2.4062653 -1.5625q1.03125 -0.921875 1.453125 -1.78125l1.0625 0l0 13.40625zm9.453842 0l0 -3.203125l-5.796875 0l0 -1.5l6.09375 -8.65625l1.34375 0l0 8.65625l1.796875 0l0 1.5l-1.796875 0l0 3.203125l-1.640625 0zm0 -4.703125l0 -6.015625l-4.1875 6.015625l4.1875 0z" fill-rule="nonzero"/><path fill="#cfe2f3" d="m250.39108 55.107613l44.850372 0l0 41.921257l-44.850372 0z" fill-rule="evenodd"/><path stroke="#000000" stroke-width="1.0" stroke-linejoin="round" stroke-linecap="butt" d="m250.39108 55.107613l44.850372 0l0 41.921257l-44.850372 0z" fill-rule="evenodd"/><path fill="#000000" d="m269.39368 82.988235l-1.640625 0l0 -10.453125q-0.59375 0.5625 -1.5625 1.140625q-0.953125 0.5625 -1.71875 0.84375l0 -1.59375q1.375 -0.640625 2.40625 -1.5625q1.03125 -0.921875 1.453125 -1.78125l1.0625 0l0 13.40625zm12.703857 -10.078125l-1.625 0.125q-0.21875 -0.96875 -0.625 -1.40625q-0.65625 -0.703125 -1.640625 -0.703125q-0.78125 0 -1.375 0.4375q-0.765625 0.5625 -1.21875 1.65625q-0.453125 1.078125 -0.46875 3.078125q0.59375 -0.890625 1.453125 -1.328125q0.859375 -0.4375 1.796875 -0.4375q1.640625 0 2.78125 1.203125q1.15625 1.203125 1.15625 3.109375q0 1.265625 -0.546875 2.34375q-0.53125 1.078125 -1.484375 1.65625q-0.9375 0.578125 -2.140625 0.578125q-2.0625 0 -3.359375 -1.5q-1.28125 -1.515625 -1.28125 -4.984375q0 -3.875 1.421875 -5.625q1.25 -1.53125 3.375 -1.53125q1.5625 0 2.5625 0.890625q1.015625 0.875 1.21875 2.4375zm-6.6875 5.75q0 0.84375 0.359375 1.625q0.359375 0.765625 1.0 1.171875q0.640625 0.40625 1.359375 0.40625q1.03125 0 1.78125 -0.828125q0.75 -0.84375 0.75 -2.28125q0 -1.390625 -0.734375 -2.1875q-0.734375 -0.796875 -1.859375 -0.796875q-1.109375 0 -1.890625 0.796875q-0.765625 0.796875 -0.765625 2.09375z" fill-rule="nonzero"/><path fill="#cfe2f3" d="m295.24146 55.107613l44.850403 0l0 41.921257l-44.850403 0z" fill-rule="evenodd"/><path stroke="#000000" stroke-width="1.0" stroke-linejoin="round" stroke-linecap="butt" d="m295.24146 55.107613l44.850403 0l0 41.921257l-44.850403 0z" fill-rule="evenodd"/><path fill="#000000" d="m314.24408 82.988235l-1.640625 0l0 -10.453125q-0.59375 0.5625 -1.5625 1.140625q-0.953125 0.5625 -1.71875 0.84375l0 -1.59375q1.375 -0.640625 2.40625 -1.5625q1.03125 -0.921875 1.453125 -1.78125l1.0625 0l0 13.40625zm4.313202 -11.609375l0 -1.578125l8.640625 0l0 1.28125q-1.28125 1.359375 -2.53125 3.609375q-1.25 2.25 -1.9375 4.625q-0.484375 1.671875 -0.625 3.671875l-1.6875 0q0.03125 -1.578125 0.625 -3.8125q0.59375 -2.234375 1.6875 -4.296875q1.109375 -2.078125 2.359375 -3.5l-6.53125 0z" fill-rule="nonzero"/><path fill="#cfe2f3" d="m340.09186 55.107613l44.850403 0l0 41.921257l-44.850403 0z" fill-rule="evenodd"/><path stroke="#000000" stroke-width="1.0" stroke-linejoin="round" stroke-linecap="butt" d="m340.09186 55.107613l44.850403 0l0 41.921257l-44.850403 0z" fill-rule="evenodd"/><path fill="#000000" d="m359.09448 82.988235l-1.640625 0l0 -10.453125q-0.59375 0.5625 -1.5625 1.140625q-0.953125 0.5625 -1.71875 0.84375l0 -1.59375q1.375 -0.640625 2.40625 -1.5625q1.03125 -0.921875 1.453125 -1.78125l1.0625 0l0 13.40625zm6.719452 -7.234375q-1.015625 -0.375 -1.515625 -1.0625q-0.484375 -0.703125 -0.484375 -1.671875q0 -1.453125 1.046875 -2.4375q1.046875 -1.0 2.78125 -1.0q1.75 0 2.8125 1.015625q1.078125 1.015625 1.078125 2.46875q0 0.9375 -0.5 1.625q-0.484375 0.6875 -1.46875 1.0625q1.21875 0.390625 1.859375 1.28125q0.65625 0.890625 0.65625 2.140625q0 1.703125 -1.21875 2.875q-1.21875 1.171875 -3.1875 1.171875q-1.984375 0 -3.203125 -1.171875q-1.203125 -1.171875 -1.203125 -2.921875q0 -1.3125 0.65625 -2.1875q0.671875 -0.875 1.890625 -1.1875zm-0.328125 -2.78125q0 0.9375 0.609375 1.546875q0.609375 0.59375 1.59375 0.59375q0.9375 0 1.546875 -0.59375q0.609375 -0.59375 0.609375 -1.453125q0 -0.90625 -0.625 -1.515625q-0.625 -0.625 -1.5625 -0.625q-0.9375 0 -1.5625 0.609375q-0.609375 0.59375 -0.609375 1.4375zm-0.53125 6.15625q0 0.703125 0.328125 1.359375q0.34375 0.65625 1.0 1.015625q0.65625 0.359375 1.40625 0.359375q1.171875 0 1.9375 -0.75q0.765625 -0.75 0.765625 -1.921875q0 -1.1875 -0.796875 -1.953125q-0.78125 -0.78125 -1.953125 -0.78125q-1.15625 0 -1.921875 0.765625q-0.765625 0.765625 -0.765625 1.90625z" fill-rule="nonzero"/><path fill="#cfe2f3" d="m384.94226 55.107613l44.850403 0l0 41.921257l-44.850403 0z" fill-rule="evenodd"/><path stroke="#000000" stroke-width="1.0" stroke-linejoin="round" stroke-linecap="butt" d="m384.94226 55.107613l44.850403 0l0 41.921257l-44.850403 0z" fill-rule="evenodd"/><path fill="#000000" d="m403.94485 82.988235l-1.640625 0l0 -10.453125q-0.59375 0.5625 -1.5625 1.140625q-0.953125 0.5625 -1.71875 0.84375l0 -1.59375q1.375 -0.640625 2.40625 -1.5625q1.03125 -0.921875 1.453125 -1.78125l1.0625 0l0 13.40625zm4.4382324 -3.09375l1.578125 -0.140625q0.203125 1.109375 0.765625 1.609375q0.5625 0.5 1.453125 0.5q0.75 0 1.3125 -0.34375q0.578125 -0.34375 0.9375 -0.921875q0.375 -0.578125 0.609375 -1.5625q0.25 -0.984375 0.25 -2.0q0 -0.109375 0 -0.328125q-0.5 0.78125 -1.359375 1.265625q-0.84375 0.484375 -1.828125 0.484375q-1.671875 0 -2.8125 -1.203125q-1.140625 -1.203125 -1.140625 -3.171875q0 -2.03125 1.1875 -3.265625q1.203125 -1.234375 3.0 -1.234375q1.3125 0 2.390625 0.703125q1.078125 0.703125 1.640625 2.0q0.5625 1.296875 0.5625 3.75q0 2.5625 -0.5625 4.078125q-0.5625 1.515625 -1.65625 2.3125q-1.09375 0.796875 -2.578125 0.796875q-1.5625 0 -2.5625 -0.875q-0.984375 -0.875 -1.1875 -2.453125zm6.71875 -5.890625q0 -1.40625 -0.75 -2.234375q-0.75 -0.828125 -1.8125 -0.828125q-1.09375 0 -1.90625 0.890625q-0.8125 0.890625 -0.8125 2.3125q0 1.28125 0.765625 2.078125q0.78125 0.796875 1.90625 0.796875q1.140625 0 1.875 -0.796875q0.734375 -0.796875 0.734375 -2.21875z" fill-rule="nonzero"/><path fill="#cfe2f3" d="m429.79266 55.107613l44.850372 0l0 41.921257l-44.850372 0z" fill-rule="evenodd"/><path stroke="#000000" stroke-width="1.0" stroke-linejoin="round" stroke-linecap="butt" d="m429.79266 55.107613l44.850372 0l0 41.921257l-44.850372 0z" fill-rule="evenodd"/><path fill="#000000" d="m451.23276 81.41011l0 1.578125l-8.828125 0q-0.015625 -0.59375 0.1875 -1.140625q0.34375 -0.90625 1.078125 -1.78125q0.75 -0.875 2.15625 -2.015625q2.171875 -1.78125 2.9375 -2.828125q0.765625 -1.046875 0.765625 -1.96875q0 -0.984375 -0.703125 -1.640625q-0.6875 -0.671875 -1.8125 -0.671875q-1.1875 0 -1.90625 0.71875q-0.703125 0.703125 -0.703125 1.953125l-1.6875 -0.171875q0.171875 -1.890625 1.296875 -2.875q1.140625 -0.984375 3.03125 -0.984375q1.921875 0 3.046875 1.0625q1.125 1.0625 1.125 2.640625q0 0.796875 -0.328125 1.578125q-0.328125 0.78125 -1.09375 1.640625q-0.75 0.84375 -2.53125 2.34375q-1.46875 1.234375 -1.890625 1.6875q-0.421875 0.4375 -0.6875 0.875l6.546875 0zm1.7663269 -5.015625q0 -2.359375 0.484375 -3.796875q0.484375 -1.453125 1.4375 -2.234375q0.96875 -0.78125 2.421875 -0.78125q1.078125 0 1.890625 0.4375q0.8125 0.421875 1.328125 1.25q0.53125 0.8125 0.828125 1.984375q0.3125 1.15625 0.3125 3.140625q0 2.359375 -0.484375 3.8125q-0.484375 1.4375 -1.453125 2.234375q-0.953125 0.78125 -2.421875 0.78125q-1.921875 0 -3.03125 -1.390625q-1.3125 -1.671875 -1.3125 -5.4375zm1.671875 0q0 3.296875 0.765625 4.390625q0.78125 1.078125 1.90625 1.078125q1.140625 0 1.90625 -1.09375q0.765625 -1.09375 0.765625 -4.375q0 -3.296875 -0.765625 -4.375q-0.765625 -1.078125 -1.921875 -1.078125q-1.125 0 -1.796875 0.953125q-0.859375 1.21875 -0.859375 4.5z" fill-rule="nonzero"/><path fill="#000000" fill-opacity="0.0" d="m35.49344 23.863518l23.212597 0l0 31.244095l-23.212597 0z" fill-rule="evenodd"/><path fill="#000000" d="m45.27469 44.189766q0 -2.359375 0.484375 -3.796875q0.484375 -1.453125 1.4375 -2.234375q0.96875 -0.78125 2.421875 -0.78125q1.078125 0 1.890625 0.4375q0.8125 0.421875 1.328125 1.25q0.53125 0.8125 0.828125 1.984375q0.3125 1.15625 0.3125 3.140625q0 2.359375 -0.484375 3.8125q-0.484375 1.4375 -1.453125 2.234375q-0.953125 0.78125 -2.421875 0.78125q-1.921875 0 -3.03125 -1.390625q-1.3125 -1.671875 -1.3125 -5.4375zm1.671875 0q0 3.296875 0.765625 4.390625q0.78125 1.078125 1.90625 1.078125q1.140625 0 1.90625 -1.09375q0.765625 -1.09375 0.765625 -4.375q0 -3.296875 -0.765625 -4.375q-0.765625 -1.078125 -1.921875 -1.078125q-1.125 0 -1.796875 0.953125q-0.859375 1.21875 -0.859375 4.5z" fill-rule="nonzero"/><path fill="#000000" fill-opacity="0.0" d="m79.41732 23.863518l23.2126 0l0 31.244095l-23.2126 0z" fill-rule="evenodd"/><path fill="#000000" d="m95.370445 50.783516l-1.640625 0l0 -10.453125q-0.59375 0.5625 -1.5625 1.140625q-0.953125 0.5625 -1.71875 0.84375l0 -1.59375q1.375 -0.640625 2.40625 -1.5625q1.03125 -0.921875 1.453125 -1.78125l1.0625 0l0 13.40625z" fill-rule="nonzero"/><path fill="#000000" fill-opacity="0.0" d="m126.65879 23.863518l23.212593 0l0 31.244095l-23.212593 0z" fill-rule="evenodd"/><path fill="#000000" d="m145.04942 49.20539l0 1.578125l-8.828125 0q-0.015625 -0.59375 0.1875 -1.140625q0.34375 -0.90625 1.078125 -1.78125q0.75 -0.875 2.15625 -2.015625q2.171875 -1.78125 2.9375 -2.828125q0.765625 -1.046875 0.765625 -1.96875q0 -0.984375 -0.703125 -1.640625q-0.6875 -0.671875 -1.8125 -0.671875q-1.1875 0 -1.90625 0.71875q-0.703125 0.703125 -0.703125 1.953125l-1.6875 -0.171875q0.171875 -1.890625 1.296875 -2.875q1.140625 -0.984375 3.03125 -0.984375q1.921875 0 3.046875 1.0625q1.125 1.0625 1.125 2.640625q0 0.796875 -0.328125 1.578125q-0.328125 0.78125 -1.09375 1.640625q-0.75 0.84375 -2.53125 2.34375q-1.46875 1.234375 -1.890625 1.6875q-0.421875 0.4375 -0.6875 0.875l6.546875 0z" fill-rule="nonzero"/><path fill="#000000" fill-opacity="0.0" d="m171.50919 23.863518l23.2126 0l0 31.244095l-23.2126 0z" fill-rule="evenodd"/><path fill="#000000" d="m181.29044 47.252266l1.640625 -0.21875q0.28125 1.40625 0.953125 2.015625q0.6875 0.609375 1.65625 0.609375q1.15625 0 1.953125 -0.796875q0.796875 -0.796875 0.796875 -1.984375q0 -1.125 -0.734375 -1.859375q-0.734375 -0.734375 -1.875 -0.734375q-0.46875 0 -1.15625 0.171875l0.1875 -1.4375q0.15625 0.015625 0.265625 0.015625q1.046875 0 1.875 -0.546875q0.84375 -0.546875 0.84375 -1.671875q0 -0.90625 -0.609375 -1.5q-0.609375 -0.59375 -1.578125 -0.59375q-0.953125 0 -1.59375 0.609375q-0.640625 0.59375 -0.8125 1.796875l-1.640625 -0.296875q0.296875 -1.640625 1.359375 -2.546875q1.0625 -0.90625 2.65625 -0.90625q1.09375 0 2.0 0.46875q0.921875 0.46875 1.40625 1.28125q0.5 0.8125 0.5 1.71875q0 0.859375 -0.46875 1.578125q-0.46875 0.703125 -1.375 1.125q1.1875 0.28125 1.84375 1.140625q0.65625 0.859375 0.65625 2.15625q0 1.734375 -1.28125 2.953125q-1.265625 1.21875 -3.21875 1.21875q-1.765625 0 -2.921875 -1.046875q-1.15625 -1.046875 -1.328125 -2.71875z" fill-rule="nonzero"/><path fill="#000000" fill-opacity="0.0" d="m261.20996 23.863518l23.212616 0l0 31.244095l-23.212616 0z" fill-rule="evenodd"/><path fill="#000000" d="m270.9912 47.283516l1.71875 -0.140625q0.1875 1.25 0.875 1.890625q0.703125 0.625 1.6875 0.625q1.1875 0 2.0 -0.890625q0.828125 -0.890625 0.828125 -2.359375q0 -1.40625 -0.796875 -2.21875q-0.78125 -0.8125 -2.0625 -0.8125q-0.78125 0 -1.421875 0.359375q-0.640625 0.359375 -1.0 0.9375l-1.546875 -0.203125l1.296875 -6.859375l6.640625 0l0 1.5625l-5.328125 0l-0.71875 3.59375q1.203125 -0.84375 2.515625 -0.84375q1.75 0 2.953125 1.21875q1.203125 1.203125 1.203125 3.109375q0 1.8125 -1.046875 3.140625q-1.296875 1.625 -3.515625 1.625q-1.8125 0 -2.96875 -1.015625q-1.15625 -1.03125 -1.3125 -2.71875z" fill-rule="nonzero"/><path fill="#000000" fill-opacity="0.0" d="m306.06036 23.863518l23.212616 0l0 31.244095l-23.212616 0z" fill-rule="evenodd"/><path fill="#000000" d="m324.3416 40.70539l-1.625 0.125q-0.21875 -0.96875 -0.625 -1.40625q-0.65625 -0.703125 -1.640625 -0.703125q-0.78125 0 -1.375 0.4375q-0.765625 0.5625 -1.21875 1.65625q-0.453125 1.078125 -0.46875 3.078125q0.59375 -0.890625 1.453125 -1.328125q0.859375 -0.4375 1.796875 -0.4375q1.640625 0 2.78125 1.203125q1.15625 1.203125 1.15625 3.109375q0 1.265625 -0.546875 2.34375q-0.53125 1.078125 -1.484375 1.65625q-0.9375 0.578125 -2.140625 0.578125q-2.0625 0 -3.359375 -1.5q-1.28125 -1.515625 -1.28125 -4.984375q0 -3.875 1.421875 -5.625q1.25 -1.53125 3.375 -1.53125q1.5625 0 2.5625 0.890625q1.015625 0.875 1.21875 2.4375zm-6.6875 5.75q0 0.84375 0.359375 1.625q0.359375 0.765625 1.0 1.171875q0.640625 0.40625 1.359375 0.40625q1.03125 0 1.78125 -0.828125q0.75 -0.84375 0.75 -2.28125q0 -1.390625 -0.734375 -2.1875q-0.734375 -0.796875 -1.859375 -0.796875q-1.109375 0 -1.890625 0.796875q-0.765625 0.796875 -0.765625 2.09375z" fill-rule="nonzero"/><path fill="#000000" fill-opacity="0.0" d="m352.37534 23.863518l23.212585 0l0 31.244095l-23.212585 0z" fill-rule="evenodd"/><path fill="#000000" d="m362.26596 39.17414l0 -1.578125l8.640625 0l0 1.28125q-1.28125 1.359375 -2.53125 3.609375q-1.25 2.25 -1.9375 4.625q-0.484375 1.671875 -0.625 3.671875l-1.6875 0q0.03125 -1.578125 0.625 -3.8125q0.59375 -2.234375 1.6875 -4.296875q1.109375 -2.078125 2.359375 -3.5l-6.53125 0z" fill-rule="nonzero"/><path fill="#000000" fill-opacity="0.0" d="m395.76117 23.863518l23.212585 0l0 31.244095l-23.212585 0z" fill-rule="evenodd"/><path fill="#000000" d="m408.05804 43.54914q-1.015625 -0.375 -1.515625 -1.0625q-0.484375 -0.703125 -0.484375 -1.671875q0 -1.453125 1.046875 -2.4375q1.046875 -1.0 2.78125 -1.0q1.75 0 2.8125 1.015625q1.078125 1.015625 1.078125 2.46875q0 0.9375 -0.5 1.625q-0.484375 0.6875 -1.46875 1.0625q1.21875 0.390625 1.859375 1.28125q0.65625 0.890625 0.65625 2.140625q0 1.703125 -1.21875 2.875q-1.21875 1.171875 -3.1875 1.171875q-1.984375 0 -3.203125 -1.171875q-1.203125 -1.171875 -1.203125 -2.921875q0 -1.3125 0.65625 -2.1875q0.671875 -0.875 1.890625 -1.1875zm-0.328125 -2.78125q0 0.9375 0.609375 1.546875q0.609375 0.59375 1.59375 0.59375q0.9375 0 1.546875 -0.59375q0.609375 -0.59375 0.609375 -1.453125q0 -0.90625 -0.625 -1.515625q-0.625 -0.625 -1.5625 -0.625q-0.9375 0 -1.5625 0.609375q-0.609375 0.59375 -0.609375 1.4375zm-0.53125 6.15625q0 0.703125 0.328125 1.359375q0.34375 0.65625 1.0 1.015625q0.65625 0.359375 1.40625 0.359375q1.171875 0 1.9375 -0.75q0.765625 -0.75 0.765625 -1.921875q0 -1.1875 -0.796875 -1.953125q-0.78125 -0.78125 -1.953125 -0.78125q-1.15625 0 -1.921875 0.765625q-0.765625 0.765625 -0.765625 1.90625z" fill-rule="nonzero"/><path fill="#000000" fill-opacity="0.0" d="m440.61154 23.863518l23.212616 0l0 31.244095l-23.212616 0z" fill-rule="evenodd"/><path fill="#000000" d="m450.62717 47.689766l1.578125 -0.140625q0.203125 1.109375 0.765625 1.609375q0.5625 0.5 1.453125 0.5q0.75 0 1.3125 -0.34375q0.578125 -0.34375 0.9375 -0.921875q0.375 -0.578125 0.609375 -1.5625q0.25 -0.984375 0.25 -2.0q0 -0.109375 0 -0.328125q-0.5 0.78125 -1.359375 1.265625q-0.84375 0.484375 -1.828125 0.484375q-1.671875 0 -2.8125 -1.203125q-1.140625 -1.203125 -1.140625 -3.171875q0 -2.03125 1.1875 -3.265625q1.203125 -1.234375 3.0 -1.234375q1.3125 0 2.390625 0.703125q1.078125 0.703125 1.640625 2.0q0.5625 1.296875 0.5625 3.75q0 2.5625 -0.5625 4.078125q-0.5625 1.515625 -1.65625 2.3125q-1.09375 0.796875 -2.578125 0.796875q-1.5625 0 -2.5625 -0.875q-0.984375 -0.875 -1.1875 -2.453125zm6.71875 -5.890625q0 -1.40625 -0.75 -2.234375q-0.75 -0.828125 -1.8125 -0.828125q-1.09375 0 -1.90625 0.890625q-0.8125 0.890625 -0.8125 2.3125q0 1.28125 0.765625 2.078125q0.78125 0.796875 1.90625 0.796875q1.140625 0 1.875 -0.796875q0.734375 -0.796875 0.734375 -2.21875z" fill-rule="nonzero"/><path fill="#000000" fill-opacity="0.0" d="m48.278214 4.7322836l162.80315 0l0 25.102364l-162.80315 0z" fill-rule="evenodd"/><path fill="#cfe2f3" d="m205.54068 55.107613l44.850403 0l0 41.921257l-44.850403 0z" fill-rule="evenodd"/><path stroke="#000000" stroke-width="1.0" stroke-linejoin="round" stroke-linecap="butt" d="m205.54068 55.107613l44.850403 0l0 41.921257l-44.850403 0z" fill-rule="evenodd"/><path fill="#000000" d="m224.54329 82.988235l-1.640625 0l0 -10.453125q-0.59375 0.5625 -1.5625 1.140625q-0.953125 0.5625 -1.71875 0.84375l0 -1.59375q1.375 -0.640625 2.40625 -1.5625q1.03125 -0.921875 1.453125 -1.78125l1.0625 0l0 13.40625zm4.203842 -3.5l1.71875 -0.140625q0.1875 1.25 0.875 1.890625q0.703125 0.625 1.6875 0.625q1.1875 0 2.0 -0.890625q0.828125 -0.890625 0.828125 -2.359375q0 -1.40625 -0.796875 -2.21875q-0.78125 -0.8125 -2.0625 -0.8125q-0.78125 0 -1.421875 0.359375q-0.640625 0.359375 -1.0 0.9375l-1.546875 -0.203125l1.296875 -6.859375l6.640625 0l0 1.5625l-5.328125 0l-0.71875 3.59375q1.203125 -0.84375 2.515625 -0.84375q1.75 0 2.953125 1.21875q1.203125 1.203125 1.203125 3.109375q0 1.8125 -1.046875 3.140625q-1.296875 1.625 -3.515625 1.625q-1.8125 0 -2.96875 -1.015625q-1.15625 -1.03125 -1.3125 -2.71875z" fill-rule="nonzero"/><path fill="#000000" fill-opacity="0.0" d="m216.87138 23.863518l33.00789 0l0 31.244095l-33.00789 0z" fill-rule="evenodd"/><path fill="#000000" d="m231.90263 50.783516l0 -3.203125l-5.796875 0l0 -1.5l6.09375 -8.65625l1.34375 0l0 8.65625l1.796875 0l0 1.5l-1.796875 0l0 3.203125l-1.640625 0zm0 -4.703125l0 -6.015625l-4.1875 6.015625l4.1875 0z" fill-rule="nonzero"/><path fill="#000000" fill-opacity="0.0" d="m478.82416 126.55905l102.80316 0l0 41.921265l-102.80316 0z" fill-rule="evenodd"/><path fill="#000000" d="m501.18353 152.96342q-1.859375 1.625 -3.703125 2.21875l-0.828125 -1.484375q2.015625 -0.59375 3.421875 -1.703125q-1.34375 -1.5625 -2.078125 -3.421875l-1.109375 0l0 -1.40625l6.375 0l0.15625 -0.296875l1.25 0.96875q0.078125 0.296875 -0.359375 0.375q-0.828125 2.140625 -2.15625 3.703125q1.109375 0.890625 3.859375 1.5625l-0.515625 1.5625q-2.15625 -0.453125 -4.3125 -2.078125zm-1.78125 -4.390625q0.96875 1.859375 1.703125 2.453125q0.671875 -0.671875 1.5625 -2.453125l-3.265625 0zm-4.375 3.5625l0 -1.25l-2.75 0l0 1.484375l2.75 -0.234375zm1.265625 3.046875l-1.265625 0l0 -1.859375l-5.203125 0.75q-0.359375 0.515625 -0.4375 0.21875l-0.453125 -1.78125l2.078125 -0.078125l0 -6.375l-2.296875 0l0 -1.1875l17.0 0l0 1.1875l-9.421875 0l0 9.125zm-4.75 -11.203125l0 -5.421875l11.34375 0l0 5.421875l-11.34375 0zm0.734375 2.078125l0 1.1875l2.75 0l0 -1.1875l-2.75 0zm0 2.375l0 1.265625l2.75 0l0 -1.265625l-2.75 0zm0.75 -6.609375l0 0.96875l8.375 0l0 -0.96875l-8.375 0zm0 -2.078125l0 0.890625l8.375 0l0 -0.890625l-8.375 0zm25.75 12.921875q-2.296875 1.625 -6.15625 2.375l-0.53125 -1.5625q3.5625 -0.453125 5.578125 -1.859375q-0.828125 -0.96875 -1.421875 -2.15625q-1.03125 1.484375 -2.890625 2.671875l-0.890625 -1.1875q2.890625 -1.84375 3.78125 -4.375l-2.8125 0.15625q-0.078125 0.515625 -0.375 0.21875l-0.515625 -1.703125l2.96875 -0.078125l1.40625 -1.1875q-1.703125 -1.1875 -3.109375 -1.859375l0.8125 -1.265625l0.734375 0.375q1.265625 -1.5625 2.234375 -3.40625l1.265625 0.734375q0.65625 0.375 -0.078125 0.515625q-0.96875 1.34375 -2.296875 2.90625q0.734375 0.4375 1.40625 0.890625q1.328125 -1.265625 2.75 -3.265625l1.328125 0.8125q0.296875 0.296875 -0.21875 0.375q-1.40625 1.921875 -4.3125 4.375l4.453125 -0.296875q-0.59375 -0.671875 -1.1875 -1.265625l1.046875 -0.890625q1.703125 1.265625 2.8125 3.34375l-1.25 0.96875l-0.59375 -1.046875l-4.828125 0.453125l-0.59375 1.25l3.703125 0l0.234375 -0.359375l1.25 0.734375q0.53125 0.21875 -0.296875 0.453125q-1.03125 1.921875 -2.296875 3.109375q1.9375 1.1875 4.828125 1.640625l-0.59375 1.703125q-2.96875 -0.671875 -5.34375 -2.296875zm0 -1.859375q0.8125 -0.8125 1.5625 -1.9375l-2.90625 0q0.453125 1.046875 1.34375 1.9375zm-7.203125 4.234375l-1.484375 0l0 -7.65625q-0.671875 0.671875 -1.5625 1.421875l-0.65625 -1.484375q2.4375 -1.9375 4.0 -4.984375l1.34375 0.890625q0.296875 0.296875 -0.234375 0.375q-0.515625 0.890625 -1.40625 2.078125l0 9.359375zm1.34375 -15.375q-1.34375 1.9375 -3.9375 3.71875l-0.8125 -1.484375q2.21875 -1.484375 3.859375 -3.5625l1.328125 1.03125q0.078125 0.375 -0.4375 0.296875zm28.5 5.578125q-0.59375 3.109375 -2.078125 7.125l4.375 0l0 1.40625l-12.390625 0l0 -1.40625l6.375 0q1.34375 -4.453125 2.0 -8.015625l1.859375 0.515625q0.21875 0.140625 -0.140625 0.375zm-12.25 9.71875l0 -9.359375q-0.453125 0.75 -1.640625 2.078125l-0.953125 -1.484375q2.96875 -2.890625 3.625 -7.859375l1.71875 0.515625q0.4375 0.21875 -0.15625 0.453125q-0.59375 2.4375 -1.328125 4.078125l0.359375 0.078125q0.234375 0.21875 -0.140625 0.4375l0 11.0625l-1.484375 0zm5.484375 -9.875q1.125 2.375 1.71875 5.265625l-1.71875 0.59375q-0.59375 -2.96875 -1.625 -5.34375l1.625 -0.515625zm8.25 -2.96875l0 1.40625l-10.765625 0l0 -1.40625l4.53125 0l0 -3.640625l1.40625 0q0.59375 0.078125 0.078125 0.453125l0 3.1875l4.75 0zm10.3125 -0.21875l1.40625 0q0.59375 0.078125 0.078125 0.4375l0 10.546875l2.078125 0l0 -14.40625l1.40625 0q0.59375 0.078125 0.078125 0.453125l0 5.1875l3.484375 0l0 1.421875l-3.484375 0l0 7.34375l4.453125 0l0 1.40625l-12.390625 0l0 -1.40625l2.890625 0l0 -10.984375zm-4.828125 0.8125l0 -4.078125l1.40625 0q0.59375 0.078125 0.078125 0.4375l0 3.640625l2.078125 0l0 1.40625l-2.078125 0l0 5.9375l2.15625 -0.4375l0 1.484375l-5.34375 1.1875q-0.375 0.96875 -0.671875 -0.078125l-0.21875 -1.40625l2.59375 -0.453125l0 -6.234375l-2.453125 0l0 -1.40625l2.453125 0z" fill-rule="nonzero"/><path fill="#000000" d="m489.08978 161.92592l16.328125 0l0 1.625l-2.296875 0l0 12.171875q0 1.421875 -1.34375 1.421875l-2.515625 0l-0.296875 -1.640625l2.140625 0q0.296875 0 0.296875 -0.296875l0 -11.65625l-12.3125 0l0 -1.625zm9.796875 11.421875l-1.703125 0l0 -0.65625l-4.09375 0l0 1.40625l-1.703125 0l0 -7.9375l7.5 0l0 7.1875zm-1.703125 -5.78125l-4.09375 0l0 3.703125l4.09375 0l0 -3.703125zm23.59375 -5.640625l1.40625 0.140625q0.59375 0.078125 0.078125 0.453125l0 5.34375q0 2.59375 -0.890625 4.296875l3.5625 2.90625l-1.109375 1.484375l-3.125 -3.125q-1.921875 2.671875 -6.96875 3.859375l-0.59375 -1.625q3.859375 -0.59375 5.71875 -2.453125q1.921875 -1.9375 1.921875 -5.859375l0 -5.421875zm-2.59375 8.453125q-2.375 1.9375 -8.3125 5.421875q-0.15625 0.59375 -0.515625 0.078125l-0.75 -1.5625q0.453125 -0.140625 1.859375 -0.890625l-0.453125 -11.0625l1.5625 0.15625q0.59375 0.078125 0.078125 0.4375l0.375 9.734375q3.328125 -1.9375 5.40625 -3.5625l0.75 1.25zm-3.125 -7.640625q1.484375 1.046875 2.75 2.75l-1.484375 1.109375q-1.328125 -1.859375 -2.515625 -2.671875l1.25 -1.1875zm17.75 5.34375l1.484375 0.453125q0.890625 -0.234375 1.78125 -0.671875l0.734375 1.484375q0.15625 0.515625 -0.59375 0.140625q-0.96875 0.15625 -1.921875 0.234375l0 1.546875l2.078125 0l0 1.1875l-2.078125 0l0 2.3125l2.8125 0l0 -8.3125l-4.75 0l0 -0.890625l-1.859375 0l0 3.328125l1.640625 -0.59375l0 1.421875l-1.640625 0.65625l0 5.875q0 1.1875 -1.03125 1.1875l-1.5625 0l-0.21875 -1.40625l1.03125 0q0.296875 0 0.296875 -0.3125l0 -4.890625l-1.328125 0.515625q-0.375 0.96875 -0.671875 -0.078125l-0.375 -1.25l2.375 -0.75l0 -3.703125l-2.0 0l0 -1.421875l2.0 0l0 -3.5625l1.421875 0q0.59375 0.078125 0.0625 0.453125l0 3.109375l1.859375 0l0 0.890625l4.75 0l0 -1.84375q-1.859375 0.0625 -4.0 0.21875l-0.53125 -1.265625q5.9375 -0.21875 9.28125 -1.03125l0.59375 1.109375q0.453125 0.734375 -0.296875 0.375q-1.484375 0.296875 -3.5625 0.4375l0 2.0l5.203125 0l0 1.421875l-5.203125 0l0 8.3125l2.890625 0l0 -2.3125l-2.140625 0l0 -1.1875l2.140625 0l0 -1.84375l-2.21875 0l0 -1.1875l3.703125 0l0 8.984375l-1.484375 0l0 -1.046875l-7.1875 0l0 1.046875l-1.484375 0l0 -9.140625zm28.796875 8.765625q-5.71875 -2.96875 -7.203125 -9.359375q-1.5625 7.203125 -7.5 9.796875l-0.890625 -1.703125q6.453125 -2.671875 6.984375 -10.3125l0.953125 0.0625l0 -2.375l-3.859375 0l0 -1.40625l5.578125 0l0 2.671875q0 7.125 6.96875 10.765625l-1.03125 1.859375z" fill-rule="nonzero"/><path fill="#000000" fill-opacity="0.0" d="m505.32285 129.75853l-0.9133911 -24.220474" fill-rule="evenodd"/><path stroke="#000000" stroke-width="1.0" stroke-linejoin="round" stroke-linecap="butt" d="m505.32285 129.75853l-0.6873169 -18.22474" fill-rule="evenodd"/><path fill="#000000" stroke="#000000" stroke-width="1.0" stroke-linecap="butt" d="m506.2861 111.47155l-1.8215637 -4.4726257l-1.4795532 4.5971146z" fill-rule="evenodd"/><path fill="#000000" fill-opacity="0.0" d="m487.96063 62.587925l30.141724 0l0 26.960629l-30.141724 0z" fill-rule="evenodd"/><path fill="#000000" d="m501.2575 86.22668q0 -0.328125 0 -0.5q0 -0.96875 0.265625 -1.671875q0.203125 -0.515625 0.640625 -1.0625q0.328125 -0.390625 1.171875 -1.140625q0.859375 -0.75 1.109375 -1.1875q0.265625 -0.453125 0.265625 -0.984375q0 -0.953125 -0.75 -1.671875q-0.734375 -0.734375 -1.828125 -0.734375q-1.046875 0 -1.75 0.65625q-0.703125 0.65625 -0.921875 2.046875l-1.6875 -0.203125q0.234375 -1.859375 1.359375 -2.84375q1.125 -1.0 2.96875 -1.0q1.96875 0 3.125 1.0625q1.171875 1.0625 1.171875 2.578125q0 0.875 -0.40625 1.609375q-0.40625 0.734375 -1.609375 1.796875q-0.796875 0.703125 -1.046875 1.046875q-0.25 0.34375 -0.375 0.78125q-0.109375 0.4375 -0.125 1.421875l-1.578125 0zm-0.09375 3.28125l0 -1.875l1.859375 0l0 1.875l-1.859375 0z" fill-rule="nonzero"/></g></svg>