<svg version="1.1" viewBox="0.0 0.0 708.6535433070866 261.01049868766404" fill="none" stroke="none" stroke-linecap="square" stroke-miterlimit="10" xmlns:xlink="http://www.w3.org/1999/xlink" xmlns="http://www.w3.org/2000/svg"><clipPath id="p.0"><path d="m0 0l708.65356 0l0 261.0105l-708.65356 0l0 -261.0105z" clip-rule="nonzero"/></clipPath><g clip-path="url(#p.0)"><path fill="#000000" fill-opacity="0.0" d="m0 0l708.65356 0l0 261.0105l-708.65356 0z" fill-rule="evenodd"/><path fill="#cfe2f3" d="m136.13911 53.333332l80.0 0l0 75.779526l-80.0 0z" fill-rule="evenodd"/><path stroke="#000000" stroke-width="1.0" stroke-linejoin="round" stroke-linecap="butt" d="m136.13911 53.333332l80.0 0l0 75.779526l-80.0 0z" fill-rule="evenodd"/><path fill="#000000" d="m180.34187 96.56497l0 1.578125l-8.828125 0q-0.015625 -0.59375 0.1875 -1.140625q0.34375 -0.90625 1.078125 -1.78125q0.75 -0.875 2.15625 -2.015625q2.171875 -1.78125 2.9375 -2.828125q0.765625 -1.046875 0.765625 -1.96875q0 -0.984375 -0.703125 -1.640625q-0.6875 -0.671875 -1.8125 -0.671875q-1.1875 0 -1.90625 0.71875q-0.703125 0.703125 -0.703125 1.953125l-1.6875 -0.171875q0.171875 -1.890625 1.296875 -2.875q1.140625 -0.984375 3.03125 -0.984375q1.921875 0 3.046875 1.0625q1.125 1.0625 1.125 2.640625q0 0.796875 -0.328125 1.578125q-0.328125 0.78125 -1.09375 1.640625q-0.75 0.84375 -2.53125 2.34375q-1.46875 1.234375 -1.890625 1.6875q-0.421875 0.4375 -0.6875 0.875l6.546875 0z" fill-rule="nonzero"/><path fill="#cfe2f3" d="m216.13911 53.333332l79.999985 0l0 75.779526l-79.999985 0z" fill-rule="evenodd"/><path stroke="#000000" stroke-width="1.0" stroke-linejoin="round" stroke-linecap="butt" d="m216.13911 53.333332l79.999985 0l0 75.779526l-79.999985 0z" fill-rule="evenodd"/><path fill="#000000" d="m257.9044 98.1431l-1.640625 0l0 -10.453125q-0.59376526 0.5625 -1.5625153 1.140625q-0.953125 0.5625 -1.71875 0.84375l0 -1.59375q1.375 -0.640625 2.40625 -1.5625q1.0312653 -0.921875 1.4531403 -1.78125l1.0625 0l0 13.40625z" fill-rule="nonzero"/><path fill="#ffe599" d="m366.76904 49.2021l80.0 0l0 75.779526l-80.0 0z" fill-rule="evenodd"/><path stroke="#000000" stroke-width="1.0" stroke-linejoin="round" stroke-linecap="butt" d="m366.76904 49.2021l80.0 0l0 75.779526l-80.0 0z" fill-rule="evenodd"/><path fill="#000000" d="m402.36243 90.48061l1.640625 -0.21875q0.28125 1.40625 0.953125 2.015625q0.6875 0.609375 1.65625 0.609375q1.15625 0 1.953125 -0.796875q0.796875 -0.796875 0.796875 -1.984375q0 -1.125 -0.734375 -1.859375q-0.734375 -0.734375 -1.875 -0.734375q-0.46875 0 -1.15625 0.171875l0.1875 -1.4375q0.15625 0.015625 0.265625 0.015625q1.046875 0 1.875 -0.546875q0.84375 -0.546875 0.84375 -1.671875q0 -0.90625 -0.609375 -1.5q-0.609375 -0.59375 -1.578125 -0.59375q-0.953125 0 -1.59375 0.609375q-0.640625 0.59375 -0.8125 1.796875l-1.640625 -0.296875q0.296875 -1.640625 1.359375 -2.546875q1.0625 -0.90625 2.65625 -0.90625q1.09375 0 2.0 0.46875q0.921875 0.46875 1.40625 1.28125q0.5 0.8125 0.5 1.71875q0 0.859375 -0.46875 1.578125q-0.46875 0.703125 -1.375 1.125q1.1875 0.28125 1.84375 1.140625q0.65625 0.859375 0.65625 2.15625q0 1.734375 -1.28125 2.953125q-1.265625 1.21875 -3.21875 1.21875q-1.765625 0 -2.921875 -1.046875q-1.15625 -1.046875 -1.328125 -2.71875z" fill-rule="nonzero"/><path fill="#ffe599" d="m446.76904 49.2021l80.0 0l0 75.779526l-80.0 0z" fill-rule="evenodd"/><path stroke="#000000" stroke-width="1.0" stroke-linejoin="round" stroke-linecap="butt" d="m446.76904 49.2021l80.0 0l0 75.779526l-80.0 0z" fill-rule="evenodd"/><path fill="#000000" d="m487.61243 94.01186l0 -3.203125l-5.796875 0l0 -1.5l6.09375 -8.65625l1.34375 0l0 8.65625l1.796875 0l0 1.5l-1.796875 0l0 3.203125l-1.640625 0zm0 -4.703125l0 -6.015625l-4.1875 6.015625l4.1875 0z" fill-rule="nonzero"/><path fill="#ead1dc" d="m136.13911 168.98163l80.0 0l0 75.779526l-80.0 0z" fill-rule="evenodd"/><path stroke="#000000" stroke-width="1.0" stroke-linejoin="round" stroke-linecap="butt" d="m136.13911 168.98163l80.0 0l0 75.779526l-80.0 0z" fill-rule="evenodd"/><path fill="#000000" d="m177.90437 213.79138l-1.640625 0l0 -10.453125q-0.59375 0.5625 -1.5625 1.140625q-0.953125 0.5625 -1.71875 0.84375l0 -1.59375q1.375 -0.640625 2.40625 -1.5625q1.03125 -0.921875 1.453125 -1.78125l1.0625 0l0 13.40625z" fill-rule="nonzero"/><path fill="#ead1dc" d="m216.13911 168.98163l79.999985 0l0 75.779526l-79.999985 0z" fill-rule="evenodd"/><path stroke="#000000" stroke-width="1.0" stroke-linejoin="round" stroke-linecap="butt" d="m216.13911 168.98163l79.999985 0l0 75.779526l-79.999985 0z" fill-rule="evenodd"/><path fill="#000000" d="m260.3419 212.21326l0 1.578125l-8.82814 0q-0.015625 -0.59375 0.1875 -1.140625q0.34375 -0.90625 1.078125 -1.78125q0.75 -0.875 2.15625 -2.015625q2.1718903 -1.78125 2.9375153 -2.828125q0.765625 -1.046875 0.765625 -1.96875q0 -0.984375 -0.703125 -1.640625q-0.6875 -0.671875 -1.8125 -0.671875q-1.1875153 0 -1.9062653 0.71875q-0.703125 0.703125 -0.703125 1.953125l-1.6875 -0.171875q0.171875 -1.890625 1.296875 -2.875q1.140625 -0.984375 3.0312653 -0.984375q1.921875 0 3.046875 1.0625q1.125 1.0625 1.125 2.640625q0 0.796875 -0.328125 1.578125q-0.328125 0.78125 -1.09375 1.640625q-0.75 0.84375 -2.53125 2.34375q-1.4687653 1.234375 -1.8906403 1.6875q-0.421875 0.4375 -0.6875 0.875l6.5468903 0z" fill-rule="nonzero"/><path fill="#000000" fill-opacity="0.0" d="m22.456694 185.12335l94.04724 0l0 43.496063l-94.04724 0z" fill-rule="evenodd"/><path fill="#000000" d="m33.23794 212.04335q3.9375 -0.890625 6.453125 -3.34375l-3.78125 0l-0.140625 0.515625l-1.484375 -0.296875q0.59375 -2.078125 0.515625 -4.078125l5.71875 0l0 -1.328125l-6.09375 0l0 -1.1875l12.625 0l0 3.703125l-5.046875 0l0 1.484375l6.59375 0l-0.515625 3.484375q-0.21875 1.5625 -1.5625 1.5625l-1.84375 0l-0.15625 -1.40625l1.484375 0q0.515625 0 0.59375 -0.515625l0.296875 -1.9375l-4.890625 0l0 5.046875l-1.484375 0l0 -4.0q-2.609375 2.8125 -6.609375 3.78125l-0.671875 -1.484375zm6.90625 -10.984375q1.5625 -1.859375 2.15625 -4.453125l1.484375 0.4375q0.296875 0.296875 -0.234375 0.375l-0.296875 0.96875l5.796875 0l0 1.40625l-3.34375 0l0.8125 1.40625l-1.703125 0.453125l-0.671875 -1.859375l-1.40625 0q-0.515625 1.109375 -1.40625 2.078125l-1.1875 -0.8125zm-4.078125 -2.671875l4.515625 0l0 1.40625l-2.296875 0l0.75 1.484375l-1.5625 0.375l-0.59375 -1.859375l-1.484375 0q-0.890625 1.484375 -1.9375 2.375l-1.03125 -1.109375q1.859375 -1.703125 2.8125 -4.375l1.421875 0.515625q0.296875 0.296875 -0.234375 0.375l-0.359375 0.8125zm5.9375 6.453125l3.5625 0l0 -1.328125l-3.5625 0l0 1.328125zm-5.71875 1.1875q-0.078125 0.75 -0.15625 1.484375l4.390625 0l0 -1.484375l-4.234375 0z" fill-rule="nonzero"/><path fill="#000000" d="m57.409817 212.04335l-1.640625 0l0 -10.453125q-0.59375 0.5625 -1.5625 1.140625q-0.953125 0.5625 -1.71875 0.84375l0 -1.59375q1.375 -0.640625 2.40625 -1.5625q1.03125 -0.921875 1.453125 -1.78125l1.0625 0l0 13.40625z" fill-rule="nonzero"/><path fill="#000000" d="m78.20741 213.3871q-4.53125 -1.796875 -6.3125 -6.171875q-1.265625 4.53125 -7.125 6.234375l-0.8125038 -1.5625q6.890629 -1.78125 6.890629 -7.78125l0 -2.90625l-0.953125 0q-0.96875 1.9375 -2.75 3.71875l-1.265625 -1.265625q2.890625 -2.890625 3.78125 -6.90625l1.71875 0.453125q0.296875 0.21875 -0.234375 0.515625q-0.21875 0.671875 -0.734375 2.078125l6.609375 0l0.296875 -0.296875l1.25 1.046875q0.296875 0.359375 -0.296875 0.4375q-0.953125 2.375 -3.03125 5.265625l-1.265625 -1.109375q1.78125 -2.21875 2.375 -3.9375l-3.78125 0l0 2.53125q0 5.265625 6.375 7.859375l-0.734375 1.796875zm-10.84375 -6.6875q-2.0 2.21875 -4.156254 3.703125q-0.140625 0.59375 -0.375 0.296875l-1.03125 -1.546875q2.5156288 -1.640625 4.531254 -3.640625l1.03125 1.1875zm-2.15625 -4.53125q-1.109375 -1.265625 -2.6718788 -2.078125l1.125 -1.484375q1.6250038 0.75 2.8125038 1.9375l-1.265625 1.625z" fill-rule="nonzero"/><path fill="#000000" fill-opacity="0.0" d="m22.456694 60.341206l80.0 0l0 43.496067l-80.0 0z" fill-rule="evenodd"/><path fill="#000000" d="m33.23794 87.26121q3.9375 -0.890625 6.453125 -3.34375l-3.78125 0l-0.140625 0.515625l-1.484375 -0.296875q0.59375 -2.078125 0.515625 -4.078125l5.71875 0l0 -1.328125l-6.09375 0l0 -1.1875l12.625 0l0 3.703125l-5.046875 0l0 1.484375l6.59375 0l-0.515625 3.484375q-0.21875 1.5625 -1.5625 1.5625l-1.84375 0l-0.15625 -1.40625l1.484375 0q0.515625 0 0.59375 -0.515625l0.296875 -1.9375l-4.890625 0l0 5.046875l-1.484375 0l0 -4.0q-2.609375 2.8125 -6.609375 3.78125l-0.671875 -1.484375zm6.90625 -10.984375q1.5625 -1.859375 2.15625 -4.453125l1.484375 0.4375q0.296875 0.296875 -0.234375 0.375l-0.296875 0.96875l5.796875 0l0 1.40625l-3.34375 0l0.8125 1.40625l-1.703125 0.453125l-0.671875 -1.859375l-1.40625 0q-0.515625 1.109375 -1.40625 2.078125l-1.1875 -0.8125zm-4.078125 -2.671875l4.515625 0l0 1.40625l-2.296875 0l0.75 1.484375l-1.5625 0.375l-0.59375 -1.859375l-1.484375 0q-0.890625 1.484375 -1.9375 2.375l-1.03125 -1.109375q1.859375 -1.703125 2.8125 -4.375l1.421875 0.515625q0.296875 0.296875 -0.234375 0.375l-0.359375 0.8125zm5.9375 6.453125l3.5625 0l0 -1.328125l-3.5625 0l0 1.328125zm-5.71875 1.1875q-0.078125 0.75 -0.15625 1.484375l4.390625 0l0 -1.484375l-4.234375 0z" fill-rule="nonzero"/><path fill="#000000" d="m51.23794 83.76121l1.71875 -0.140625q0.1875 1.25 0.875 1.890625q0.703125 0.625 1.6875 0.625q1.1875 0 2.0 -0.890625q0.828125 -0.890625 0.828125 -2.359375q0 -1.40625 -0.796875 -2.21875q-0.78125 -0.8125 -2.0625 -0.8125q-0.78125 0 -1.421875 0.359375q-0.640625 0.359375 -1.0 0.9375l-1.546875 -0.203125l1.296875 -6.859375l6.640625 0l0 1.5625l-5.328125 0l-0.71875 3.59375q1.203125 -0.84375 2.515625 -0.84375q1.75 0 2.953125 1.21875q1.203125 1.203125 1.203125 3.109375q0 1.8125 -1.046875 3.140625q-1.296875 1.625 -3.515625 1.625q-1.8125 0 -2.96875 -1.015625q-1.15625 -1.03125 -1.3125 -2.71875z" fill-rule="nonzero"/><path fill="#000000" d="m73.37929 73.68308q-1.34375 2.59375 -4.15625 4.375l-0.59375 -1.40625q3.046875 -1.78125 4.078125 -4.828125l1.5625 0.21875q0.296875 0.296875 -0.21875 0.375l-0.078125 0.21875q1.859375 2.453125 4.828125 3.71875l-0.59375 1.546875q-3.203125 -1.625 -4.828125 -4.21875zm-2.234375 3.03125l4.984375 0l0 1.1875l-4.984375 0l0 -1.1875zm5.578125 7.421875l-1.125 0l0 4.234375l-1.25 0l0 -4.234375l-1.125 0l0 4.234375l-1.25 0l0 -4.234375l-1.125 0l0 4.6875l-1.25 0l0 -9.734375l8.375 0l0 8.625q0 1.109375 -0.890625 1.109375l-0.8125 0l-0.21875 -1.1875l0.375 0q0.296875 0 0.296875 -0.296875l0 -3.203125zm-4.75 -3.859375l-1.125 0l0 2.671875l1.125 0l0 -2.671875zm2.375 0l-1.125 0l0 2.671875l1.125 0l0 -2.671875zm2.375 0l-1.125 0l0 2.671875l1.125 0l0 -2.671875zm-8.3125 2.828125l-2.453125 0l0 1.328125l2.75 0l0 1.1875l-2.75 0l0 3.28125l-1.265625 0l0 -3.28125l-2.8125038 0l0 -1.1875l2.8125038 0l0 -1.328125l-1.1875038 0l-1.265625 0l0 -6.53125l2.4531288 0l0 -1.265625l-2.5937538 0l0 -1.1875l2.5937538 0l0 -2.296875l1.1875 0q0.59375 0.078125 0.078125 0.4375l0 1.859375l2.59375 0l0 1.1875l-2.59375 0l0 1.265625l2.453125 0l0 6.53125zm-3.71875 -5.34375l-1.1875038 0l0 1.625l1.1875038 0l0 -1.625zm2.453125 0l-1.1875 0l0 1.625l1.1875 0l0 -1.625zm-2.453125 2.515625l-1.1875038 0l0 1.640625l1.1875038 0l0 -1.640625zm2.453125 0l-1.1875 0l0 1.640625l1.1875 0l0 -1.640625z" fill-rule="nonzero"/><path fill="#ffe599" d="m606.76904 49.2021l80.0 0l0 75.779526l-80.0 0z" fill-rule="evenodd"/><path stroke="#000000" stroke-width="1.0" stroke-linejoin="round" stroke-linecap="butt" d="m606.76904 49.2021l80.0 0l0 75.779526l-80.0 0z" fill-rule="evenodd"/><path fill="#000000" d="m650.8624 83.93374l-1.625 0.125q-0.21875 -0.96875 -0.625 -1.40625q-0.65625 -0.703125 -1.640625 -0.703125q-0.78125 0 -1.375 0.4375q-0.765625 0.5625 -1.21875 1.65625q-0.453125 1.078125 -0.46875 3.078125q0.59375 -0.890625 1.453125 -1.328125q0.859375 -0.4375 1.796875 -0.4375q1.640625 0 2.78125 1.203125q1.15625 1.203125 1.15625 3.109375q0 1.265625 -0.546875 2.34375q-0.53125 1.078125 -1.484375 1.65625q-0.9375 0.578125 -2.140625 0.578125q-2.0625 0 -3.359375 -1.5q-1.28125 -1.515625 -1.28125 -4.984375q0 -3.875 1.421875 -5.625q1.25 -1.53125 3.375 -1.53125q1.5625 0 2.5625 0.890625q1.015625 0.875 1.21875 2.4375zm-6.6875 5.75q0 0.84375 0.359375 1.625q0.359375 0.765625 1.0 1.171875q0.640625 0.40625 1.359375 0.40625q1.03125 0 1.78125 -0.828125q0.75 -0.84375 0.75 -2.28125q0 -1.390625 -0.734375 -2.1875q-0.734375 -0.796875 -1.859375 -0.796875q-1.109375 0 -1.890625 0.796875q-0.765625 0.796875 -0.765625 2.09375z" fill-rule="nonzero"/><path fill="#ffe599" d="m526.76904 49.2021l80.0 0l0 75.779526l-80.0 0z" fill-rule="evenodd"/><path stroke="#000000" stroke-width="1.0" stroke-linejoin="round" stroke-linecap="butt" d="m526.76904 49.2021l80.0 0l0 75.779526l-80.0 0z" fill-rule="evenodd"/><path fill="#000000" d="m562.3624 90.51186l1.71875 -0.140625q0.1875 1.25 0.875 1.890625q0.703125 0.625 1.6875 0.625q1.1875 0 2.0 -0.890625q0.828125 -0.890625 0.828125 -2.359375q0 -1.40625 -0.796875 -2.21875q-0.78125 -0.8125 -2.0625 -0.8125q-0.78125 0 -1.421875 0.359375q-0.640625 0.359375 -1.0 0.9375l-1.546875 -0.203125l1.296875 -6.859375l6.640625 0l0 1.5625l-5.328125 0l-0.71875 3.59375q1.203125 -0.84375 2.515625 -0.84375q1.75 0 2.953125 1.21875q1.203125 1.203125 1.203125 3.109375q0 1.8125 -1.046875 3.140625q-1.296875 1.625 -3.515625 1.625q-1.8125 0 -2.96875 -1.015625q-1.15625 -1.03125 -1.3125 -2.71875z" fill-rule="nonzero"/></g></svg>