<svg version="1.1" viewBox="0.0 0.0 690.5275590551181 232.98162729658793" fill="none" stroke="none" stroke-linecap="square" stroke-miterlimit="10" xmlns:xlink="http://www.w3.org/1999/xlink" xmlns="http://www.w3.org/2000/svg"><clipPath id="p.0"><path d="m0 0l690.5276 0l0 232.98163l-690.5276 0l0 -232.98163z" clip-rule="nonzero"/></clipPath><g clip-path="url(#p.0)"><path fill="#000000" fill-opacity="0.0" d="m0 0l690.5276 0l0 232.98163l-690.5276 0z" fill-rule="evenodd"/><path fill="#cfe2f3" d="m26.139107 55.107613l44.850395 0l0 41.921257l-44.850395 0z" fill-rule="evenodd"/><path stroke="#000000" stroke-width="1.0" stroke-linejoin="round" stroke-linecap="butt" d="m26.139107 55.107613l44.850395 0l0 41.921257l-44.850395 0z" fill-rule="evenodd"/><path fill="#000000" d="m45.834423 82.988235l-1.640625 0l0 -10.453125q-0.59375 0.5625 -1.5625 1.140625q-0.953125 0.5625 -1.71875 0.84375l0 -1.59375q1.375 -0.640625 2.40625 -1.5625q1.03125 -0.921875 1.453125 -1.78125l1.0625 0l0 13.40625zm8.990295 0l-1.640625 0l0 -10.453125q-0.59375 0.5625 -1.5625 1.140625q-0.953125 0.5625 -1.71875 0.84375l0 -1.59375q1.375 -0.640625 2.40625 -1.5625q1.03125 -0.921875 1.453125 -1.78125l1.0625 0l0 13.40625z" fill-rule="nonzero"/><path fill="#cfe2f3" d="m70.9895 55.107613l44.850395 0l0 41.921257l-44.850395 0z" fill-rule="evenodd"/><path stroke="#000000" stroke-width="1.0" stroke-linejoin="round" stroke-linecap="butt" d="m70.9895 55.107613l44.850395 0l0 41.921257l-44.850395 0z" fill-rule="evenodd"/><path fill="#000000" d="m89.9921 82.988235l-1.640625 0l0 -10.453125q-0.59375 0.5625 -1.5625 1.140625q-0.953125 0.5625 -1.71875 0.84375l0 -1.59375q1.375 -0.640625 2.40625 -1.5625q1.03125 -0.921875 1.453125 -1.78125l1.0625 0l0 13.40625zm12.813217 -1.578125l0 1.578125l-8.828125 0q-0.015625 -0.59375 0.1875 -1.140625q0.34375 -0.90625 1.078125 -1.78125q0.75 -0.875 2.15625 -2.015625q2.171875 -1.78125 2.9375 -2.828125q0.765625 -1.046875 0.765625 -1.96875q0 -0.984375 -0.703125 -1.640625q-0.6875 -0.671875 -1.8125 -0.671875q-1.1875 0 -1.90625 0.71875q-0.703125 0.703125 -0.703125 1.953125l-1.6875 -0.171875q0.171875 -1.890625 1.296875 -2.875q1.140625 -0.984375 3.03125 -0.984375q1.921875 0 3.046875 1.0625q1.125 1.0625 1.125 2.640625q0 0.796875 -0.328125 1.578125q-0.328125 0.78125 -1.09375 1.640625q-0.75 0.84375 -2.53125 2.34375q-1.46875 1.234375 -1.890625 1.6875q-0.421875 0.4375 -0.6875 0.875l6.546875 0z" fill-rule="nonzero"/><path fill="#cfe2f3" d="m115.8399 55.107613l44.850395 0l0 41.921257l-44.850395 0z" fill-rule="evenodd"/><path stroke="#000000" stroke-width="1.0" stroke-linejoin="round" stroke-linecap="butt" d="m115.8399 55.107613l44.850395 0l0 41.921257l-44.850395 0z" fill-rule="evenodd"/><path fill="#000000" d="m134.8425 82.988235l-1.640625 0l0 -10.453125q-0.59375 0.5625 -1.5625 1.140625q-0.953125 0.5625 -1.71875 0.84375l0 -1.59375q1.375 -0.640625 2.40625 -1.5625q1.03125 -0.921875 1.453125 -1.78125l1.0625 0l0 13.40625zm4.203842 -3.53125l1.640625 -0.21875q0.28125 1.40625 0.953125 2.015625q0.6875 0.609375 1.65625 0.609375q1.15625 0 1.953125 -0.796875q0.796875 -0.796875 0.796875 -1.984375q0 -1.125 -0.734375 -1.859375q-0.734375 -0.734375 -1.875 -0.734375q-0.46875 0 -1.15625 0.171875l0.1875 -1.4375q0.15625 0.015625 0.265625 0.015625q1.046875 0 1.875 -0.546875q0.84375 -0.546875 0.84375 -1.671875q0 -0.90625 -0.609375 -1.5q-0.609375 -0.59375 -1.578125 -0.59375q-0.953125 0 -1.59375 0.609375q-0.640625 0.59375 -0.8125 1.796875l-1.640625 -0.296875q0.296875 -1.640625 1.359375 -2.546875q1.0625 -0.90625 2.65625 -0.90625q1.09375 0 2.0 0.46875q0.921875 0.46875 1.40625 1.28125q0.5 0.8125 0.5 1.71875q0 0.859375 -0.46875 1.578125q-0.46875 0.703125 -1.375 1.125q1.1875 0.28125 1.84375 1.140625q0.65625 0.859375 0.65625 2.15625q0 1.734375 -1.28125 2.953125q-1.265625 1.21875 -3.21875 1.21875q-1.765625 0 -2.921875 -1.046875q-1.15625 -1.046875 -1.328125 -2.71875z" fill-rule="nonzero"/><path fill="#cfe2f3" d="m160.69029 55.107613l44.850388 0l0 41.921257l-44.850388 0z" fill-rule="evenodd"/><path stroke="#000000" stroke-width="1.0" stroke-linejoin="round" stroke-linecap="butt" d="m160.69029 55.107613l44.850388 0l0 41.921257l-44.850388 0z" fill-rule="evenodd"/><path fill="#000000" d="m179.6929 82.988235l-1.640625 0l0 -10.453125q-0.59375 0.5625 -1.5625153 1.140625q-0.953125 0.5625 -1.71875 0.84375l0 -1.59375q1.375 -0.640625 2.4062653 -1.5625q1.03125 -0.921875 1.453125 -1.78125l1.0625 0l0 13.40625zm9.453842 0l0 -3.203125l-5.796875 0l0 -1.5l6.09375 -8.65625l1.34375 0l0 8.65625l1.796875 0l0 1.5l-1.796875 0l0 3.203125l-1.640625 0zm0 -4.703125l0 -6.015625l-4.1875 6.015625l4.1875 0z" fill-rule="nonzero"/><path fill="#fff2cc" d="m250.39108 55.107613l44.850372 0l0 41.921257l-44.850372 0z" fill-rule="evenodd"/><path stroke="#000000" stroke-width="1.0" stroke-linejoin="round" stroke-linecap="butt" d="m250.39108 55.107613l44.850372 0l0 41.921257l-44.850372 0z" fill-rule="evenodd"/><path fill="#000000" d="m269.39368 82.988235l-1.640625 0l0 -10.453125q-0.59375 0.5625 -1.5625 1.140625q-0.953125 0.5625 -1.71875 0.84375l0 -1.59375q1.375 -0.640625 2.40625 -1.5625q1.03125 -0.921875 1.453125 -1.78125l1.0625 0l0 13.40625zm12.703857 -10.078125l-1.625 0.125q-0.21875 -0.96875 -0.625 -1.40625q-0.65625 -0.703125 -1.640625 -0.703125q-0.78125 0 -1.375 0.4375q-0.765625 0.5625 -1.21875 1.65625q-0.453125 1.078125 -0.46875 3.078125q0.59375 -0.890625 1.453125 -1.328125q0.859375 -0.4375 1.796875 -0.4375q1.640625 0 2.78125 1.203125q1.15625 1.203125 1.15625 3.109375q0 1.265625 -0.546875 2.34375q-0.53125 1.078125 -1.484375 1.65625q-0.9375 0.578125 -2.140625 0.578125q-2.0625 0 -3.359375 -1.5q-1.28125 -1.515625 -1.28125 -4.984375q0 -3.875 1.421875 -5.625q1.25 -1.53125 3.375 -1.53125q1.5625 0 2.5625 0.890625q1.015625 0.875 1.21875 2.4375zm-6.6875 5.75q0 0.84375 0.359375 1.625q0.359375 0.765625 1.0 1.171875q0.640625 0.40625 1.359375 0.40625q1.03125 0 1.78125 -0.828125q0.75 -0.84375 0.75 -2.28125q0 -1.390625 -0.734375 -2.1875q-0.734375 -0.796875 -1.859375 -0.796875q-1.109375 0 -1.890625 0.796875q-0.765625 0.796875 -0.765625 2.09375z" fill-rule="nonzero"/><path fill="#fff2cc" d="m295.24146 55.107613l44.850403 0l0 41.921257l-44.850403 0z" fill-rule="evenodd"/><path stroke="#000000" stroke-width="1.0" stroke-linejoin="round" stroke-linecap="butt" d="m295.24146 55.107613l44.850403 0l0 41.921257l-44.850403 0z" fill-rule="evenodd"/><path fill="#000000" d="m314.24408 82.988235l-1.640625 0l0 -10.453125q-0.59375 0.5625 -1.5625 1.140625q-0.953125 0.5625 -1.71875 0.84375l0 -1.59375q1.375 -0.640625 2.40625 -1.5625q1.03125 -0.921875 1.453125 -1.78125l1.0625 0l0 13.40625zm4.313202 -11.609375l0 -1.578125l8.640625 0l0 1.28125q-1.28125 1.359375 -2.53125 3.609375q-1.25 2.25 -1.9375 4.625q-0.484375 1.671875 -0.625 3.671875l-1.6875 0q0.03125 -1.578125 0.625 -3.8125q0.59375 -2.234375 1.6875 -4.296875q1.109375 -2.078125 2.359375 -3.5l-6.53125 0z" fill-rule="nonzero"/><path fill="#fff2cc" d="m340.09186 55.107613l44.850403 0l0 41.921257l-44.850403 0z" fill-rule="evenodd"/><path stroke="#000000" stroke-width="1.0" stroke-linejoin="round" stroke-linecap="butt" d="m340.09186 55.107613l44.850403 0l0 41.921257l-44.850403 0z" fill-rule="evenodd"/><path fill="#000000" d="m359.09448 82.988235l-1.640625 0l0 -10.453125q-0.59375 0.5625 -1.5625 1.140625q-0.953125 0.5625 -1.71875 0.84375l0 -1.59375q1.375 -0.640625 2.40625 -1.5625q1.03125 -0.921875 1.453125 -1.78125l1.0625 0l0 13.40625zm6.719452 -7.234375q-1.015625 -0.375 -1.515625 -1.0625q-0.484375 -0.703125 -0.484375 -1.671875q0 -1.453125 1.046875 -2.4375q1.046875 -1.0 2.78125 -1.0q1.75 0 2.8125 1.015625q1.078125 1.015625 1.078125 2.46875q0 0.9375 -0.5 1.625q-0.484375 0.6875 -1.46875 1.0625q1.21875 0.390625 1.859375 1.28125q0.65625 0.890625 0.65625 2.140625q0 1.703125 -1.21875 2.875q-1.21875 1.171875 -3.1875 1.171875q-1.984375 0 -3.203125 -1.171875q-1.203125 -1.171875 -1.203125 -2.921875q0 -1.3125 0.65625 -2.1875q0.671875 -0.875 1.890625 -1.1875zm-0.328125 -2.78125q0 0.9375 0.609375 1.546875q0.609375 0.59375 1.59375 0.59375q0.9375 0 1.546875 -0.59375q0.609375 -0.59375 0.609375 -1.453125q0 -0.90625 -0.625 -1.515625q-0.625 -0.625 -1.5625 -0.625q-0.9375 0 -1.5625 0.609375q-0.609375 0.59375 -0.609375 1.4375zm-0.53125 6.15625q0 0.703125 0.328125 1.359375q0.34375 0.65625 1.0 1.015625q0.65625 0.359375 1.40625 0.359375q1.171875 0 1.9375 -0.75q0.765625 -0.75 0.765625 -1.921875q0 -1.1875 -0.796875 -1.953125q-0.78125 -0.78125 -1.953125 -0.78125q-1.15625 0 -1.921875 0.765625q-0.765625 0.765625 -0.765625 1.90625z" fill-rule="nonzero"/><path fill="#fff2cc" d="m384.94226 55.107613l44.850403 0l0 41.921257l-44.850403 0z" fill-rule="evenodd"/><path stroke="#000000" stroke-width="1.0" stroke-linejoin="round" stroke-linecap="butt" d="m384.94226 55.107613l44.850403 0l0 41.921257l-44.850403 0z" fill-rule="evenodd"/><path fill="#000000" d="m403.94485 82.988235l-1.640625 0l0 -10.453125q-0.59375 0.5625 -1.5625 1.140625q-0.953125 0.5625 -1.71875 0.84375l0 -1.59375q1.375 -0.640625 2.40625 -1.5625q1.03125 -0.921875 1.453125 -1.78125l1.0625 0l0 13.40625zm4.4382324 -3.09375l1.578125 -0.140625q0.203125 1.109375 0.765625 1.609375q0.5625 0.5 1.453125 0.5q0.75 0 1.3125 -0.34375q0.578125 -0.34375 0.9375 -0.921875q0.375 -0.578125 0.609375 -1.5625q0.25 -0.984375 0.25 -2.0q0 -0.109375 0 -0.328125q-0.5 0.78125 -1.359375 1.265625q-0.84375 0.484375 -1.828125 0.484375q-1.671875 0 -2.8125 -1.203125q-1.140625 -1.203125 -1.140625 -3.171875q0 -2.03125 1.1875 -3.265625q1.203125 -1.234375 3.0 -1.234375q1.3125 0 2.390625 0.703125q1.078125 0.703125 1.640625 2.0q0.5625 1.296875 0.5625 3.75q0 2.5625 -0.5625 4.078125q-0.5625 1.515625 -1.65625 2.3125q-1.09375 0.796875 -2.578125 0.796875q-1.5625 0 -2.5625 -0.875q-0.984375 -0.875 -1.1875 -2.453125zm6.71875 -5.890625q0 -1.40625 -0.75 -2.234375q-0.75 -0.828125 -1.8125 -0.828125q-1.09375 0 -1.90625 0.890625q-0.8125 0.890625 -0.8125 2.3125q0 1.28125 0.765625 2.078125q0.78125 0.796875 1.90625 0.796875q1.140625 0 1.875 -0.796875q0.734375 -0.796875 0.734375 -2.21875z" fill-rule="nonzero"/><path fill="#fff2cc" d="m429.79266 55.107613l44.850372 0l0 41.921257l-44.850372 0z" fill-rule="evenodd"/><path stroke="#000000" stroke-width="1.0" stroke-linejoin="round" stroke-linecap="butt" d="m429.79266 55.107613l44.850372 0l0 41.921257l-44.850372 0z" fill-rule="evenodd"/><path fill="#000000" d="m451.23276 81.41011l0 1.578125l-8.828125 0q-0.015625 -0.59375 0.1875 -1.140625q0.34375 -0.90625 1.078125 -1.78125q0.75 -0.875 2.15625 -2.015625q2.171875 -1.78125 2.9375 -2.828125q0.765625 -1.046875 0.765625 -1.96875q0 -0.984375 -0.703125 -1.640625q-0.6875 -0.671875 -1.8125 -0.671875q-1.1875 0 -1.90625 0.71875q-0.703125 0.703125 -0.703125 1.953125l-1.6875 -0.171875q0.171875 -1.890625 1.296875 -2.875q1.140625 -0.984375 3.03125 -0.984375q1.921875 0 3.046875 1.0625q1.125 1.0625 1.125 2.640625q0 0.796875 -0.328125 1.578125q-0.328125 0.78125 -1.09375 1.640625q-0.75 0.84375 -2.53125 2.34375q-1.46875 1.234375 -1.890625 1.6875q-0.421875 0.4375 -0.6875 0.875l6.546875 0zm1.7663269 -5.015625q0 -2.359375 0.484375 -3.796875q0.484375 -1.453125 1.4375 -2.234375q0.96875 -0.78125 2.421875 -0.78125q1.078125 0 1.890625 0.4375q0.8125 0.421875 1.328125 1.25q0.53125 0.8125 0.828125 1.984375q0.3125 1.15625 0.3125 3.140625q0 2.359375 -0.484375 3.8125q-0.484375 1.4375 -1.453125 2.234375q-0.953125 0.78125 -2.421875 0.78125q-1.921875 0 -3.03125 -1.390625q-1.3125 -1.671875 -1.3125 -5.4375zm1.671875 0q0 3.296875 0.765625 4.390625q0.78125 1.078125 1.90625 1.078125q1.140625 0 1.90625 -1.09375q0.765625 -1.09375 0.765625 -4.375q0 -3.296875 -0.765625 -4.375q-0.765625 -1.078125 -1.921875 -1.078125q-1.125 0 -1.796875 0.953125q-0.859375 1.21875 -0.859375 4.5z" fill-rule="nonzero"/><path fill="#000000" fill-opacity="0.0" d="m35.49344 23.863518l23.212597 0l0 31.244095l-23.212597 0z" fill-rule="evenodd"/><path fill="#000000" d="m45.27469 44.189766q0 -2.359375 0.484375 -3.796875q0.484375 -1.453125 1.4375 -2.234375q0.96875 -0.78125 2.421875 -0.78125q1.078125 0 1.890625 0.4375q0.8125 0.421875 1.328125 1.25q0.53125 0.8125 0.828125 1.984375q0.3125 1.15625 0.3125 3.140625q0 2.359375 -0.484375 3.8125q-0.484375 1.4375 -1.453125 2.234375q-0.953125 0.78125 -2.421875 0.78125q-1.921875 0 -3.03125 -1.390625q-1.3125 -1.671875 -1.3125 -5.4375zm1.671875 0q0 3.296875 0.765625 4.390625q0.78125 1.078125 1.90625 1.078125q1.140625 0 1.90625 -1.09375q0.765625 -1.09375 0.765625 -4.375q0 -3.296875 -0.765625 -4.375q-0.765625 -1.078125 -1.921875 -1.078125q-1.125 0 -1.796875 0.953125q-0.859375 1.21875 -0.859375 4.5z" fill-rule="nonzero"/><path fill="#000000" fill-opacity="0.0" d="m79.41732 23.863518l23.2126 0l0 31.244095l-23.2126 0z" fill-rule="evenodd"/><path fill="#000000" d="m95.370445 50.783516l-1.640625 0l0 -10.453125q-0.59375 0.5625 -1.5625 1.140625q-0.953125 0.5625 -1.71875 0.84375l0 -1.59375q1.375 -0.640625 2.40625 -1.5625q1.03125 -0.921875 1.453125 -1.78125l1.0625 0l0 13.40625z" fill-rule="nonzero"/><path fill="#000000" fill-opacity="0.0" d="m126.65879 23.863518l23.212593 0l0 31.244095l-23.212593 0z" fill-rule="evenodd"/><path fill="#000000" d="m145.04942 49.20539l0 1.578125l-8.828125 0q-0.015625 -0.59375 0.1875 -1.140625q0.34375 -0.90625 1.078125 -1.78125q0.75 -0.875 2.15625 -2.015625q2.171875 -1.78125 2.9375 -2.828125q0.765625 -1.046875 0.765625 -1.96875q0 -0.984375 -0.703125 -1.640625q-0.6875 -0.671875 -1.8125 -0.671875q-1.1875 0 -1.90625 0.71875q-0.703125 0.703125 -0.703125 1.953125l-1.6875 -0.171875q0.171875 -1.890625 1.296875 -2.875q1.140625 -0.984375 3.03125 -0.984375q1.921875 0 3.046875 1.0625q1.125 1.0625 1.125 2.640625q0 0.796875 -0.328125 1.578125q-0.328125 0.78125 -1.09375 1.640625q-0.75 0.84375 -2.53125 2.34375q-1.46875 1.234375 -1.890625 1.6875q-0.421875 0.4375 -0.6875 0.875l6.546875 0z" fill-rule="nonzero"/><path fill="#000000" fill-opacity="0.0" d="m171.50919 23.863518l23.2126 0l0 31.244095l-23.2126 0z" fill-rule="evenodd"/><path fill="#000000" d="m181.29044 47.252266l1.640625 -0.21875q0.28125 1.40625 0.953125 2.015625q0.6875 0.609375 1.65625 0.609375q1.15625 0 1.953125 -0.796875q0.796875 -0.796875 0.796875 -1.984375q0 -1.125 -0.734375 -1.859375q-0.734375 -0.734375 -1.875 -0.734375q-0.46875 0 -1.15625 0.171875l0.1875 -1.4375q0.15625 0.015625 0.265625 0.015625q1.046875 0 1.875 -0.546875q0.84375 -0.546875 0.84375 -1.671875q0 -0.90625 -0.609375 -1.5q-0.609375 -0.59375 -1.578125 -0.59375q-0.953125 0 -1.59375 0.609375q-0.640625 0.59375 -0.8125 1.796875l-1.640625 -0.296875q0.296875 -1.640625 1.359375 -2.546875q1.0625 -0.90625 2.65625 -0.90625q1.09375 0 2.0 0.46875q0.921875 0.46875 1.40625 1.28125q0.5 0.8125 0.5 1.71875q0 0.859375 -0.46875 1.578125q-0.46875 0.703125 -1.375 1.125q1.1875 0.28125 1.84375 1.140625q0.65625 0.859375 0.65625 2.15625q0 1.734375 -1.28125 2.953125q-1.265625 1.21875 -3.21875 1.21875q-1.765625 0 -2.921875 -1.046875q-1.15625 -1.046875 -1.328125 -2.71875z" fill-rule="nonzero"/><path fill="#000000" fill-opacity="0.0" d="m261.20996 23.863518l23.212616 0l0 31.244095l-23.212616 0z" fill-rule="evenodd"/><path fill="#000000" d="m270.9912 47.283516l1.71875 -0.140625q0.1875 1.25 0.875 1.890625q0.703125 0.625 1.6875 0.625q1.1875 0 2.0 -0.890625q0.828125 -0.890625 0.828125 -2.359375q0 -1.40625 -0.796875 -2.21875q-0.78125 -0.8125 -2.0625 -0.8125q-0.78125 0 -1.421875 0.359375q-0.640625 0.359375 -1.0 0.9375l-1.546875 -0.203125l1.296875 -6.859375l6.640625 0l0 1.5625l-5.328125 0l-0.71875 3.59375q1.203125 -0.84375 2.515625 -0.84375q1.75 0 2.953125 1.21875q1.203125 1.203125 1.203125 3.109375q0 1.8125 -1.046875 3.140625q-1.296875 1.625 -3.515625 1.625q-1.8125 0 -2.96875 -1.015625q-1.15625 -1.03125 -1.3125 -2.71875z" fill-rule="nonzero"/><path fill="#000000" fill-opacity="0.0" d="m306.06036 23.863518l23.212616 0l0 31.244095l-23.212616 0z" fill-rule="evenodd"/><path fill="#000000" d="m324.3416 40.70539l-1.625 0.125q-0.21875 -0.96875 -0.625 -1.40625q-0.65625 -0.703125 -1.640625 -0.703125q-0.78125 0 -1.375 0.4375q-0.765625 0.5625 -1.21875 1.65625q-0.453125 1.078125 -0.46875 3.078125q0.59375 -0.890625 1.453125 -1.328125q0.859375 -0.4375 1.796875 -0.4375q1.640625 0 2.78125 1.203125q1.15625 1.203125 1.15625 3.109375q0 1.265625 -0.546875 2.34375q-0.53125 1.078125 -1.484375 1.65625q-0.9375 0.578125 -2.140625 0.578125q-2.0625 0 -3.359375 -1.5q-1.28125 -1.515625 -1.28125 -4.984375q0 -3.875 1.421875 -5.625q1.25 -1.53125 3.375 -1.53125q1.5625 0 2.5625 0.890625q1.015625 0.875 1.21875 2.4375zm-6.6875 5.75q0 0.84375 0.359375 1.625q0.359375 0.765625 1.0 1.171875q0.640625 0.40625 1.359375 0.40625q1.03125 0 1.78125 -0.828125q0.75 -0.84375 0.75 -2.28125q0 -1.390625 -0.734375 -2.1875q-0.734375 -0.796875 -1.859375 -0.796875q-1.109375 0 -1.890625 0.796875q-0.765625 0.796875 -0.765625 2.09375z" fill-rule="nonzero"/><path fill="#000000" fill-opacity="0.0" d="m352.37534 23.863518l23.212585 0l0 31.244095l-23.212585 0z" fill-rule="evenodd"/><path fill="#000000" d="m362.26596 39.17414l0 -1.578125l8.640625 0l0 1.28125q-1.28125 1.359375 -2.53125 3.609375q-1.25 2.25 -1.9375 4.625q-0.484375 1.671875 -0.625 3.671875l-1.6875 0q0.03125 -1.578125 0.625 -3.8125q0.59375 -2.234375 1.6875 -4.296875q1.109375 -2.078125 2.359375 -3.5l-6.53125 0z" fill-rule="nonzero"/><path fill="#000000" fill-opacity="0.0" d="m395.76117 23.863518l23.212585 0l0 31.244095l-23.212585 0z" fill-rule="evenodd"/><path fill="#000000" d="m408.05804 43.54914q-1.015625 -0.375 -1.515625 -1.0625q-0.484375 -0.703125 -0.484375 -1.671875q0 -1.453125 1.046875 -2.4375q1.046875 -1.0 2.78125 -1.0q1.75 0 2.8125 1.015625q1.078125 1.015625 1.078125 2.46875q0 0.9375 -0.5 1.625q-0.484375 0.6875 -1.46875 1.0625q1.21875 0.390625 1.859375 1.28125q0.65625 0.890625 0.65625 2.140625q0 1.703125 -1.21875 2.875q-1.21875 1.171875 -3.1875 1.171875q-1.984375 0 -3.203125 -1.171875q-1.203125 -1.171875 -1.203125 -2.921875q0 -1.3125 0.65625 -2.1875q0.671875 -0.875 1.890625 -1.1875zm-0.328125 -2.78125q0 0.9375 0.609375 1.546875q0.609375 0.59375 1.59375 0.59375q0.9375 0 1.546875 -0.59375q0.609375 -0.59375 0.609375 -1.453125q0 -0.90625 -0.625 -1.515625q-0.625 -0.625 -1.5625 -0.625q-0.9375 0 -1.5625 0.609375q-0.609375 0.59375 -0.609375 1.4375zm-0.53125 6.15625q0 0.703125 0.328125 1.359375q0.34375 0.65625 1.0 1.015625q0.65625 0.359375 1.40625 0.359375q1.171875 0 1.9375 -0.75q0.765625 -0.75 0.765625 -1.921875q0 -1.1875 -0.796875 -1.953125q-0.78125 -0.78125 -1.953125 -0.78125q-1.15625 0 -1.921875 0.765625q-0.765625 0.765625 -0.765625 1.90625z" fill-rule="nonzero"/><path fill="#000000" fill-opacity="0.0" d="m440.61154 23.863518l23.212616 0l0 31.244095l-23.212616 0z" fill-rule="evenodd"/><path fill="#000000" d="m450.62717 47.689766l1.578125 -0.140625q0.203125 1.109375 0.765625 1.609375q0.5625 0.5 1.453125 0.5q0.75 0 1.3125 -0.34375q0.578125 -0.34375 0.9375 -0.921875q0.375 -0.578125 0.609375 -1.5625q0.25 -0.984375 0.25 -2.0q0 -0.109375 0 -0.328125q-0.5 0.78125 -1.359375 1.265625q-0.84375 0.484375 -1.828125 0.484375q-1.671875 0 -2.8125 -1.203125q-1.140625 -1.203125 -1.140625 -3.171875q0 -2.03125 1.1875 -3.265625q1.203125 -1.234375 3.0 -1.234375q1.3125 0 2.390625 0.703125q1.078125 0.703125 1.640625 2.0q0.5625 1.296875 0.5625 3.75q0 2.5625 -0.5625 4.078125q-0.5625 1.515625 -1.65625 2.3125q-1.09375 0.796875 -2.578125 0.796875q-1.5625 0 -2.5625 -0.875q-0.984375 -0.875 -1.1875 -2.453125zm6.71875 -5.890625q0 -1.40625 -0.75 -2.234375q-0.75 -0.828125 -1.8125 -0.828125q-1.09375 0 -1.90625 0.890625q-0.8125 0.890625 -0.8125 2.3125q0 1.28125 0.765625 2.078125q0.78125 0.796875 1.90625 0.796875q1.140625 0 1.875 -0.796875q0.734375 -0.796875 0.734375 -2.21875z" fill-rule="nonzero"/><path fill="#d9d2e9" d="m205.54068 55.107613l44.850403 0l0 41.921257l-44.850403 0z" fill-rule="evenodd"/><path stroke="#000000" stroke-width="1.0" stroke-linejoin="round" stroke-linecap="butt" d="m205.54068 55.107613l44.850403 0l0 41.921257l-44.850403 0z" fill-rule="evenodd"/><path fill="#000000" d="m224.54329 82.988235l-1.640625 0l0 -10.453125q-0.59375 0.5625 -1.5625 1.140625q-0.953125 0.5625 -1.71875 0.84375l0 -1.59375q1.375 -0.640625 2.40625 -1.5625q1.03125 -0.921875 1.453125 -1.78125l1.0625 0l0 13.40625zm4.203842 -3.5l1.71875 -0.140625q0.1875 1.25 0.875 1.890625q0.703125 0.625 1.6875 0.625q1.1875 0 2.0 -0.890625q0.828125 -0.890625 0.828125 -2.359375q0 -1.40625 -0.796875 -2.21875q-0.78125 -0.8125 -2.0625 -0.8125q-0.78125 0 -1.421875 0.359375q-0.640625 0.359375 -1.0 0.9375l-1.546875 -0.203125l1.296875 -6.859375l6.640625 0l0 1.5625l-5.328125 0l-0.71875 3.59375q1.203125 -0.84375 2.515625 -0.84375q1.75 0 2.953125 1.21875q1.203125 1.203125 1.203125 3.109375q0 1.8125 -1.046875 3.140625q-1.296875 1.625 -3.515625 1.625q-1.8125 0 -2.96875 -1.015625q-1.15625 -1.03125 -1.3125 -2.71875z" fill-rule="nonzero"/><path fill="#000000" fill-opacity="0.0" d="m216.87138 23.863518l33.00789 0l0 31.244095l-33.00789 0z" fill-rule="evenodd"/><path fill="#000000" d="m231.90263 50.783516l0 -3.203125l-5.796875 0l0 -1.5l6.09375 -8.65625l1.34375 0l0 8.65625l1.796875 0l0 1.5l-1.796875 0l0 3.203125l-1.640625 0zm0 -4.703125l0 -6.015625l-4.1875 6.015625l4.1875 0z" fill-rule="nonzero"/><path fill="#000000" fill-opacity="0.0" d="m210.52231 25.797901l49.29135 87.52756" fill-rule="evenodd"/><path stroke="#000000" stroke-width="1.0" stroke-linejoin="round" stroke-linecap="butt" d="m210.52231 25.797901l49.29135 87.52756" fill-rule="evenodd"/><path fill="#000000" fill-opacity="0.0" d="m256.12598 32.706036l-60.34645 88.91339" fill-rule="evenodd"/><path stroke="#000000" stroke-width="1.0" stroke-linejoin="round" stroke-linecap="butt" d="m256.12598 32.706036l-60.34645 88.91339" fill-rule="evenodd"/><path fill="#fff2cc" d="m209.55118 164.61942l44.850403 0l0 41.921265l-44.850403 0z" fill-rule="evenodd"/><path stroke="#000000" stroke-width="1.0" stroke-linejoin="round" stroke-linecap="butt" d="m209.55118 164.61942l44.850403 0l0 41.921265l-44.850403 0z" fill-rule="evenodd"/><path fill="#000000" d="m228.55379 192.50005l-1.640625 0l0 -10.453125q-0.59375 0.5625 -1.5625 1.140625q-0.953125 0.5625 -1.71875 0.84375l0 -1.59375q1.375 -0.640625 2.40625 -1.5625q1.03125 -0.921875 1.453125 -1.78125l1.0625 0l0 13.40625zm12.703842 -10.078125l-1.625 0.125q-0.21875 -0.96875 -0.625 -1.40625q-0.65625 -0.703125 -1.640625 -0.703125q-0.78125 0 -1.375 0.4375q-0.765625 0.5625 -1.21875 1.65625q-0.453125 1.078125 -0.46875 3.078125q0.59375 -0.890625 1.453125 -1.328125q0.859375 -0.4375 1.796875 -0.4375q1.640625 0 2.78125 1.203125q1.15625 1.203125 1.15625 3.109375q0 1.265625 -0.546875 2.34375q-0.53125 1.078125 -1.484375 1.65625q-0.9375 0.578125 -2.140625 0.578125q-2.0625 0 -3.359375 -1.5q-1.28125 -1.515625 -1.28125 -4.984375q0 -3.875 1.421875 -5.625q1.25 -1.53125 3.375 -1.53125q1.5625 0 2.5625 0.890625q1.015625 0.875 1.21875 2.4375zm-6.6875 5.75q0 0.84375 0.359375 1.625q0.359375 0.765625 1.0 1.171875q0.640625 0.40625 1.359375 0.40625q1.03125 0 1.78125 -0.828125q0.75 -0.84375 0.75 -2.28125q0 -1.390625 -0.734375 -2.1875q-0.734375 -0.796875 -1.859375 -0.796875q-1.109375 0 -1.890625 0.796875q-0.765625 0.796875 -0.765625 2.09375z" fill-rule="nonzero"/><path fill="#fff2cc" d="m254.40158 164.61942l44.850403 0l0 41.921265l-44.850403 0z" fill-rule="evenodd"/><path stroke="#000000" stroke-width="1.0" stroke-linejoin="round" stroke-linecap="butt" d="m254.40158 164.61942l44.850403 0l0 41.921265l-44.850403 0z" fill-rule="evenodd"/><path fill="#000000" d="m273.40417 192.50005l-1.640625 0l0 -10.453125q-0.59375 0.5625 -1.5625 1.140625q-0.953125 0.5625 -1.71875 0.84375l0 -1.59375q1.375 -0.640625 2.40625 -1.5625q1.03125 -0.921875 1.453125 -1.78125l1.0625 0l0 13.40625zm4.3132324 -11.609375l0 -1.578125l8.640625 0l0 1.28125q-1.28125 1.359375 -2.53125 3.609375q-1.25 2.25 -1.9375 4.625q-0.484375 1.671875 -0.625 3.671875l-1.6875 0q0.03125 -1.578125 0.625 -3.8125q0.59375 -2.234375 1.6875 -4.296875q1.109375 -2.078125 2.359375 -3.5l-6.53125 0z" fill-rule="nonzero"/><path fill="#fff2cc" d="m299.25198 164.61942l44.850372 0l0 41.921265l-44.850372 0z" fill-rule="evenodd"/><path stroke="#000000" stroke-width="1.0" stroke-linejoin="round" stroke-linecap="butt" d="m299.25198 164.61942l44.850372 0l0 41.921265l-44.850372 0z" fill-rule="evenodd"/><path fill="#000000" d="m318.25458 192.50005l-1.640625 0l0 -10.453125q-0.59375 0.5625 -1.5625 1.140625q-0.953125 0.5625 -1.71875 0.84375l0 -1.59375q1.375 -0.640625 2.40625 -1.5625q1.03125 -0.921875 1.453125 -1.78125l1.0625 0l0 13.40625zm6.719452 -7.234375q-1.015625 -0.375 -1.515625 -1.0625q-0.484375 -0.703125 -0.484375 -1.671875q0 -1.453125 1.046875 -2.4375q1.046875 -1.0 2.78125 -1.0q1.75 0 2.8125 1.015625q1.078125 1.015625 1.078125 2.46875q0 0.9375 -0.5 1.625q-0.484375 0.6875 -1.46875 1.0625q1.21875 0.390625 1.859375 1.28125q0.65625 0.890625 0.65625 2.140625q0 1.703125 -1.21875 2.875q-1.21875 1.171875 -3.1875 1.171875q-1.984375 0 -3.203125 -1.171875q-1.203125 -1.171875 -1.203125 -2.921875q0 -1.3125 0.65625 -2.1875q0.671875 -0.875 1.890625 -1.1875zm-0.328125 -2.78125q0 0.9375 0.609375 1.546875q0.609375 0.59375 1.59375 0.59375q0.9375 0 1.546875 -0.59375q0.609375 -0.59375 0.609375 -1.453125q0 -0.90625 -0.625 -1.515625q-0.625 -0.625 -1.5625 -0.625q-0.9375 0 -1.5625 0.609375q-0.609375 0.59375 -0.609375 1.4375zm-0.53125 6.15625q0 0.703125 0.328125 1.359375q0.34375 0.65625 1.0 1.015625q0.65625 0.359375 1.40625 0.359375q1.171875 0 1.9375 -0.75q0.765625 -0.75 0.765625 -1.921875q0 -1.1875 -0.796875 -1.953125q-0.78125 -0.78125 -1.953125 -0.78125q-1.15625 0 -1.921875 0.765625q-0.765625 0.765625 -0.765625 1.90625z" fill-rule="nonzero"/><path fill="#fff2cc" d="m344.10236 164.61942l44.850403 0l0 41.921265l-44.850403 0z" fill-rule="evenodd"/><path stroke="#000000" stroke-width="1.0" stroke-linejoin="round" stroke-linecap="butt" d="m344.10236 164.61942l44.850403 0l0 41.921265l-44.850403 0z" fill-rule="evenodd"/><path fill="#000000" d="m363.10498 192.50005l-1.640625 0l0 -10.453125q-0.59375 0.5625 -1.5625 1.140625q-0.953125 0.5625 -1.71875 0.84375l0 -1.59375q1.375 -0.640625 2.40625 -1.5625q1.03125 -0.921875 1.453125 -1.78125l1.0625 0l0 13.40625zm4.438202 -3.09375l1.578125 -0.140625q0.203125 1.109375 0.765625 1.609375q0.5625 0.5 1.453125 0.5q0.75 0 1.3125 -0.34375q0.578125 -0.34375 0.9375 -0.921875q0.375 -0.578125 0.609375 -1.5625q0.25 -0.984375 0.25 -2.0q0 -0.109375 0 -0.328125q-0.5 0.78125 -1.359375 1.265625q-0.84375 0.484375 -1.828125 0.484375q-1.671875 0 -2.8125 -1.203125q-1.140625 -1.203125 -1.140625 -3.171875q0 -2.03125 1.1875 -3.265625q1.203125 -1.234375 3.0 -1.234375q1.3125 0 2.390625 0.703125q1.078125 0.703125 1.640625 2.0q0.5625 1.296875 0.5625 3.75q0 2.5625 -0.5625 4.078125q-0.5625 1.515625 -1.65625 2.3125q-1.09375 0.796875 -2.578125 0.796875q-1.5625 0 -2.5625 -0.875q-0.984375 -0.875 -1.1875 -2.453125zm6.71875 -5.890625q0 -1.40625 -0.75 -2.234375q-0.75 -0.828125 -1.8125 -0.828125q-1.09375 0 -1.90625 0.890625q-0.8125 0.890625 -0.8125 2.3125q0 1.28125 0.765625 2.078125q0.78125 0.796875 1.90625 0.796875q1.140625 0 1.875 -0.796875q0.734375 -0.796875 0.734375 -2.21875z" fill-rule="nonzero"/><path fill="#fff2cc" d="m388.95276 164.61942l44.850403 0l0 41.921265l-44.850403 0z" fill-rule="evenodd"/><path stroke="#000000" stroke-width="1.0" stroke-linejoin="round" stroke-linecap="butt" d="m388.95276 164.61942l44.850403 0l0 41.921265l-44.850403 0z" fill-rule="evenodd"/><path fill="#000000" d="m410.39285 190.92192l0 1.578125l-8.828125 0q-0.015625 -0.59375 0.1875 -1.140625q0.34375 -0.90625 1.078125 -1.78125q0.75 -0.875 2.15625 -2.015625q2.171875 -1.78125 2.9375 -2.828125q0.765625 -1.046875 0.765625 -1.96875q0 -0.984375 -0.703125 -1.640625q-0.6875 -0.671875 -1.8125 -0.671875q-1.1875 0 -1.90625 0.71875q-0.703125 0.703125 -0.703125 1.953125l-1.6875 -0.171875q0.171875 -1.890625 1.296875 -2.875q1.140625 -0.984375 3.03125 -0.984375q1.921875 0 3.046875 1.0625q1.125 1.0625 1.125 2.640625q0 0.796875 -0.328125 1.578125q-0.328125 0.78125 -1.09375 1.640625q-0.75 0.84375 -2.53125 2.34375q-1.46875 1.234375 -1.890625 1.6875q-0.421875 0.4375 -0.6875 0.875l6.546875 0zm1.7663574 -5.015625q0 -2.359375 0.484375 -3.796875q0.484375 -1.453125 1.4375 -2.234375q0.96875 -0.78125 2.421875 -0.78125q1.078125 0 1.890625 0.4375q0.8125 0.421875 1.328125 1.25q0.53125 0.8125 0.828125 1.984375q0.3125 1.15625 0.3125 3.140625q0 2.359375 -0.484375 3.8125q-0.484375 1.4375 -1.453125 2.234375q-0.953125 0.78125 -2.421875 0.78125q-1.921875 0 -3.03125 -1.390625q-1.3125 -1.671875 -1.3125 -5.4375zm1.671875 0q0 3.296875 0.765625 4.390625q0.78125 1.078125 1.90625 1.078125q1.140625 0 1.90625 -1.09375q0.765625 -1.09375 0.765625 -4.375q0 -3.296875 -0.765625 -4.375q-0.765625 -1.078125 -1.921875 -1.078125q-1.125 0 -1.796875 0.953125q-0.859375 1.21875 -0.859375 4.5z" fill-rule="nonzero"/><path fill="#000000" fill-opacity="0.0" d="m220.37007 133.37534l23.2126 0l0 31.24408l-23.2126 0z" fill-rule="evenodd"/><path fill="#000000" d="m235.40132 160.29533l0 -3.203125l-5.796875 0l0 -1.5l6.09375 -8.65625l1.34375 0l0 8.65625l1.796875 0l0 1.5l-1.796875 0l0 3.203125l-1.640625 0zm0 -4.703125l0 -6.015625l-4.1875 6.015625l4.1875 0z" fill-rule="nonzero"/><path fill="#000000" fill-opacity="0.0" d="m265.22046 133.37534l23.212616 0l0 31.24408l-23.212616 0z" fill-rule="evenodd"/><path fill="#000000" d="m275.0017 156.79533l1.71875 -0.140625q0.1875 1.25 0.875 1.890625q0.703125 0.625 1.6875 0.625q1.1875 0 2.0 -0.890625q0.828125 -0.890625 0.828125 -2.359375q0 -1.40625 -0.796875 -2.21875q-0.78125 -0.8125 -2.0625 -0.8125q-0.78125 0 -1.421875 0.359375q-0.640625 0.359375 -1.0 0.9375l-1.546875 -0.203125l1.296875 -6.859375l6.640625 0l0 1.5625l-5.328125 0l-0.71875 3.59375q1.203125 -0.84375 2.515625 -0.84375q1.75 0 2.953125 1.21875q1.203125 1.203125 1.203125 3.109375q0 1.8125 -1.046875 3.140625q-1.296875 1.625 -3.515625 1.625q-1.8125 0 -2.96875 -1.015625q-1.15625 -1.03125 -1.3125 -2.71875z" fill-rule="nonzero"/><path fill="#000000" fill-opacity="0.0" d="m311.53543 133.37534l23.212585 0l0 31.24408l-23.212585 0z" fill-rule="evenodd"/><path fill="#000000" d="m329.81668 150.21721l-1.625 0.125q-0.21875 -0.96875 -0.625 -1.40625q-0.65625 -0.703125 -1.640625 -0.703125q-0.78125 0 -1.375 0.4375q-0.765625 0.5625 -1.21875 1.65625q-0.453125 1.078125 -0.46875 3.078125q0.59375 -0.890625 1.453125 -1.328125q0.859375 -0.4375 1.796875 -0.4375q1.640625 0 2.78125 1.203125q1.15625 1.203125 1.15625 3.109375q0 1.265625 -0.546875 2.34375q-0.53125 1.078125 -1.484375 1.65625q-0.9375 0.578125 -2.140625 0.578125q-2.0625 0 -3.359375 -1.5q-1.28125 -1.515625 -1.28125 -4.984375q0 -3.875 1.421875 -5.625q1.25 -1.53125 3.375 -1.53125q1.5625 0 2.5625 0.890625q1.015625 0.875 1.21875 2.4375zm-6.6875 5.75q0 0.84375 0.359375 1.625q0.359375 0.765625 1.0 1.171875q0.640625 0.40625 1.359375 0.40625q1.03125 0 1.78125 -0.828125q0.75 -0.84375 0.75 -2.28125q0 -1.390625 -0.734375 -2.1875q-0.734375 -0.796875 -1.859375 -0.796875q-1.109375 0 -1.890625 0.796875q-0.765625 0.796875 -0.765625 2.09375z" fill-rule="nonzero"/><path fill="#000000" fill-opacity="0.0" d="m354.92126 133.37534l23.212585 0l0 31.24408l-23.212585 0z" fill-rule="evenodd"/><path fill="#000000" d="m364.8119 148.68596l0 -1.578125l8.640625 0l0 1.28125q-1.28125 1.359375 -2.53125 3.609375q-1.25 2.25 -1.9375 4.625q-0.484375 1.671875 -0.625 3.671875l-1.6875 0q0.03125 -1.578125 0.625 -3.8125q0.59375 -2.234375 1.6875 -4.296875q1.109375 -2.078125 2.359375 -3.5l-6.53125 0z" fill-rule="nonzero"/><path fill="#000000" fill-opacity="0.0" d="m399.77167 133.37534l23.212585 0l0 31.24408l-23.212585 0z" fill-rule="evenodd"/><path fill="#000000" d="m412.06854 153.06096q-1.015625 -0.375 -1.515625 -1.0625q-0.484375 -0.703125 -0.484375 -1.671875q0 -1.453125 1.046875 -2.4375q1.046875 -1.0 2.78125 -1.0q1.75 0 2.8125 1.015625q1.078125 1.015625 1.078125 2.46875q0 0.9375 -0.5 1.625q-0.484375 0.6875 -1.46875 1.0625q1.21875 0.390625 1.859375 1.28125q0.65625 0.890625 0.65625 2.140625q0 1.703125 -1.21875 2.875q-1.21875 1.171875 -3.1875 1.171875q-1.984375 0 -3.203125 -1.171875q-1.203125 -1.171875 -1.203125 -2.921875q0 -1.3125 0.65625 -2.1875q0.671875 -0.875 1.890625 -1.1875zm-0.328125 -2.78125q0 0.9375 0.609375 1.546875q0.609375 0.59375 1.59375 0.59375q0.9375 0 1.546875 -0.59375q0.609375 -0.59375 0.609375 -1.453125q0 -0.90625 -0.625 -1.515625q-0.625 -0.625 -1.5625 -0.625q-0.9375 0 -1.5625 0.609375q-0.609375 0.59375 -0.609375 1.4375zm-0.53125 6.15625q0 0.703125 0.328125 1.359375q0.34375 0.65625 1.0 1.015625q0.65625 0.359375 1.40625 0.359375q1.171875 0 1.9375 -0.75q0.765625 -0.75 0.765625 -1.921875q0 -1.1875 -0.796875 -1.953125q-0.78125 -0.78125 -1.953125 -0.78125q-1.15625 0 -1.921875 0.765625q-0.765625 0.765625 -0.765625 1.90625z" fill-rule="nonzero"/><path fill="#000000" fill-opacity="0.0" d="m274.09186 120.69292l-26.267715 16.59842" fill-rule="evenodd"/><path stroke="#000000" stroke-width="1.0" stroke-linejoin="round" stroke-linecap="butt" d="m274.09186 120.69292l-21.195496 13.393311" fill-rule="evenodd"/><path fill="#000000" stroke="#000000" stroke-width="1.0" stroke-linecap="butt" d="m252.01402 132.68991l-2.9540253 3.8205109l4.718689 -1.0278625z" fill-rule="evenodd"/><path fill="#000000" fill-opacity="0.0" d="m275.61942 103.8294l154.17325 0l0 25.322838l-154.17325 0z" fill-rule="evenodd"/><path fill="#000000" d="m288.6663 128.08127l-1.171875 0l0 -6.09375q-0.703125 0.8125 -1.40625 1.28125l-0.703125 -1.171875q2.40625 -1.75 3.390625 -4.5l1.234375 0.875q0.234375 0.171875 -0.34375 0.296875q-0.421875 0.75 -1.0 1.75l0 7.5625zm4.515625 -13.296875q1.453125 0.9375 2.046875 1.75l-1.0 1.109375q-0.765625 -1.109375 -1.9375 -1.875l0.890625 -0.984375zm-3.0 2.984375l8.03125 0l0 1.109375l-3.578125 0l0 2.9375l3.109375 0l0 1.109375l-3.109375 0l0 3.390625l4.171875 0l0 1.125l-9.5 0l0 -1.125l4.15625 0l0 -3.390625l-2.921875 0l0 -1.109375l2.921875 0l0 -2.9375l-3.28125 0l0 -1.109375zm-4.625 0.40625q1.875 -1.34375 3.046875 -3.34375l1.109375 0.890625q0.234375 0.171875 -0.34375 0.28125q-1.0 1.703125 -3.046875 3.28125l-0.765625 -1.109375zm19.8125 3.046875l0 -1.171875l-2.578125 0l0 1.171875l2.578125 0zm0 1.109375l-2.578125 0l0 1.234375l2.578125 0l0 -1.234375zm-0.1875 4.640625q0.1875 0 0.1875 -0.1875l0 -2.109375l-2.578125 0l0 3.53125l-1.171875 0l0 -9.265625l4.921875 0l0 8.140625q0 1.0 -0.9375 1.0l-1.171875 0l-0.296875 -1.109375l1.046875 0zm3.046875 -7.734375l1.171875 0l0 6.734375l-1.171875 0l0 -6.734375zm3.0 7.671875q0.171875 0 0.171875 -0.171875l0 -7.96875l1.109375 0q0.59375 0.109375 0.0625 0.46875l0 7.796875q0 0.984375 -0.9375 0.984375l-1.296875 0l-0.234375 -1.109375l1.125 0zm-1.0 -11.421875q-0.359375 0.640625 -0.875 1.453125l4.453125 0l0 1.125l-13.484375 0l0 -1.125l3.984375 0q-0.34375 -0.8125 -0.8125 -1.40625l1.046875 -0.578125q0.640625 0.640625 1.296875 1.984375l2.15625 0q0.65625 -1.109375 1.0625 -2.21875l1.34375 0.46875q0.234375 0.234375 -0.171875 0.296875zm16.875 0.875l0.171875 -0.234375l0.9375 0.765625l-0.171875 0.171875q-1.53125 2.640625 -2.984375 3.515625l0.578125 0.171875q0.40625 0.171875 -0.0625 0.359375q-0.109375 0.40625 -0.28125 0.703125l2.515625 0l0.171875 -0.234375l1.0625 0.75l-0.234375 0.234375q-1.875 4.984375 -7.625 5.640625l-0.46875 -1.125q2.75 -0.296875 4.34375 -1.46875q-0.828125 -0.8125 -1.640625 -1.40625q-0.765625 0.65625 -2.0625 1.171875l-0.515625 -1.046875q2.859375 -1.171875 3.75 -3.578125q-0.890625 0.828125 -3.171875 1.40625l-0.53125 -1.046875q2.234375 -0.46875 3.34375 -1.234375q-0.578125 -0.703125 -1.40625 -1.234375q-0.40625 0.40625 -0.8125 0.703125l-0.828125 -0.875q1.9375 -1.640625 2.46875 -3.515625l1.046875 0.34375q0.40625 0.1875 -0.0625 0.359375q-0.046875 0.34375 -0.28125 0.703125l2.75 0zm-7.96875 2.28125l1.9375 0l0 1.109375l-1.9375 0l0 1.46875q1.171875 0.53125 2.21875 1.578125l-0.75 1.0625q-0.9375 -0.9375 -1.46875 -1.34375l0 5.6875l-1.171875 0l0 -5.8125q-0.359375 1.171875 -1.9375 2.984375l-0.875 -1.109375q2.171875 -2.046875 2.6875 -4.515625l-2.28125 0l0 -1.109375l2.40625 0l0 -1.9375q-1.171875 0.1875 -2.109375 0.296875l-0.296875 -1.109375q2.34375 -0.234375 4.859375 -0.9375l0.65625 0.875q0.234375 0.359375 -0.296875 0.234375q-0.828125 0.234375 -1.640625 0.40625l0 2.171875zm4.28125 -0.703125q0.875 0.46875 1.6875 1.171875q0.890625 -0.8125 1.46875 -1.8125l-2.6875 0q-0.234375 0.40625 -0.46875 0.640625zm0.640625 5.5625q0.8125 0.46875 1.875 1.40625q0.875 -0.640625 1.515625 -2.15625l-2.6875 0q-0.359375 0.46875 -0.703125 0.75zm12.484375 3.703125q0.578125 -0.296875 1.21875 -0.890625l-6.5625 1.234375q-0.046875 0.421875 -0.28125 0.1875l-0.359375 -1.296875l3.40625 -0.40625l0 -1.0625l-2.765625 0l0 -0.9375l2.765625 0l0 -0.875l-1.359375 0l-1.28125 0l0 -4.15625l2.640625 0l0 -0.828125l-3.40625 0l0 -0.9375l3.40625 0l0 -0.703125q-1.46875 0.0625 -2.9375 0.125l-0.171875 -1.0q2.875 0 6.15625 -0.640625l0.515625 0.984375q0.1875 0.359375 -0.34375 0.125q-1.234375 0.171875 -2.234375 0.296875l0 0.8125l3.234375 0l0 0.9375l-3.234375 0l0 0.828125l2.703125 0l0 4.15625l-2.703125 0l0 0.875l2.9375 0l0 0.9375l-2.9375 0l0 0.875l2.9375 -0.46875l0 0.828125q1.703125 -1.53125 1.75 -4.625l0.0625 -2.296875l-1.40625 0l0 -1.109375l1.40625 0l0 -2.984375l1.109375 0q0.46875 0.0625 0.0625 0.34375l0 2.640625l2.578125 0l-0.109375 7.734375q-0.0625 2.109375 -1.53125 2.109375l-1.578125 0l-0.171875 -1.109375l1.34375 0q0.703125 0 0.765625 -1.234375l0.171875 -6.390625l-1.46875 0l-0.0625 2.765625q-0.046875 4.03125 -3.5625 6.265625l-0.703125 -1.109375zm-1.59375 -5.8125l0 1.0625l1.703125 0l0 -1.0625l-1.703125 0zm0 -1.6875l0 0.984375l1.703125 0l0 -0.984375l-1.703125 0zm-2.625 1.6875l0 1.0625l1.640625 0l0 -1.0625l-1.640625 0zm0 -1.6875l0 0.984375l1.640625 0l0 -0.984375l-1.640625 0zm25.828125 0.75l0 1.296875l-12.359375 0l0 -1.296875l12.359375 0zm15.234375 2.46875q-2.453125 -0.828125 -4.03125 -2.109375q-1.234375 1.109375 -3.703125 2.28125l-0.34375 -0.9375l-0.53125 0.765625q-0.46875 -0.765625 -1.0 -1.234375l0 6.515625l-1.171875 0l0 -6.453125q-0.515625 1.578125 -1.640625 2.921875l-0.75 -1.109375q1.921875 -2.453125 2.34375 -4.921875l-2.0 0l0 -1.109375l2.046875 0l0 -2.703125l1.125 0q0.40625 0.125 0.046875 0.359375l0 2.34375l1.703125 0l0 1.109375l-1.703125 0l0 1.765625q1.0625 0.578125 1.640625 1.34375q2.109375 -0.765625 3.109375 -1.703125q-0.578125 -0.640625 -1.109375 -1.640625q-0.296875 0.765625 -1.46875 2.0l-0.875 -0.9375q2.109375 -2.0 2.6875 -4.75l1.234375 0.296875q0.234375 0.234375 -0.171875 0.28125l-0.359375 1.0625l3.046875 0l0.234375 -0.296875l0.890625 0.765625l-0.296875 0.171875q-0.828125 1.640625 -2.109375 3.046875q1.515625 1.0 3.6875 1.640625l-0.53125 1.234375zm-2.21875 4.984375l0 -0.59375l-3.453125 0l0 0.828125l-1.171875 0l0 -5.390625l5.796875 0l0 5.15625l-1.171875 0zm0 -1.53125l0 -2.6875l-3.453125 0l0 2.6875l3.453125 0zm-1.765625 -7.09375q0.828125 -0.75 1.40625 -1.984375l-2.75 0q0.53125 1.109375 1.34375 1.984375z" fill-rule="nonzero"/><path fill="#000000" fill-opacity="0.0" d="m247.82414 -5.4435697l70.83464 0l0 23.874016l-70.83464 0z" fill-rule="evenodd"/><path fill="#000000" d="m257.71478 8.16893l0 -1.3593755l1.171875 0l0 1.3593755l-1.171875 0zm0 8.1875l0 -6.90625l1.171875 0l0 6.90625l-1.171875 0zm2.945465 0l0 -6.90625l1.0625 0l0 0.984375q0.75 -1.140625 2.1875 -1.140625q0.625 0 1.15625 0.21875q0.53125 0.21875 0.78125 0.59375q0.265625 0.359375 0.375 0.859375q0.0625 0.328125 0.0625 1.140625l0 4.25l-1.171875 0l0 -4.203125q0 -0.71875 -0.140625 -1.0625q-0.140625 -0.359375 -0.484375 -0.5625q-0.34375 -0.21875 -0.8125 -0.21875q-0.75 0 -1.296875 0.46875q-0.546875 0.46875 -0.546875 1.796875l0 3.78125l-1.171875 0zm11.896851 0l0 -0.875q-0.65625 1.03125 -1.9375 1.03125q-0.8125 0 -1.515625 -0.453125q-0.6875 -0.453125 -1.078125 -1.265625q-0.375 -0.828125 -0.375 -1.890625q0 -1.03125 0.34375 -1.875q0.34375 -0.84375 1.03125 -1.28125q0.703125 -0.453125 1.546875 -0.453125q0.625 0 1.109375 0.265625q0.5 0.25 0.796875 0.671875l0 -3.4218755l1.171875 0l0 9.546875l-1.09375 0zm-3.703125 -3.453125q0 1.328125 0.5625 1.984375q0.5625 0.65625 1.328125 0.65625q0.765625 0 1.296875 -0.625q0.53125 -0.625 0.53125 -1.90625q0 -1.421875 -0.546875 -2.078125q-0.546875 -0.671875 -1.34375 -0.671875q-0.78125 0 -1.3125 0.640625q-0.515625 0.625 -0.515625 2.0zm11.365601 1.234375l1.203125 0.140625q-0.28125 1.0625 -1.0625 1.65625q-0.765625 0.578125 -1.96875 0.578125q-1.515625 0 -2.40625 -0.9375q-0.890625 -0.9375 -0.890625 -2.609375q0 -1.75 0.890625 -2.703125q0.90625 -0.96875 2.34375 -0.96875q1.390625 0 2.265625 0.9375q0.875 0.9375 0.875 2.65625q0 0.109375 0 0.3125l-5.15625 0q0.0625 1.140625 0.640625 1.75q0.578125 0.59375 1.4375 0.59375q0.65625 0 1.109375 -0.328125q0.453125 -0.34375 0.71875 -1.078125zm-3.84375 -1.90625l3.859375 0q-0.078125 -0.859375 -0.4375 -1.296875q-0.5625 -0.6875 -1.453125 -0.6875q-0.8125 0 -1.359375 0.546875q-0.546875 0.53125 -0.609375 1.4375zm5.7406006 4.125l2.53125 -3.59375l-2.34375 -3.3125l1.46875 0l1.0625 1.609375q0.296875 0.46875 0.484375 0.78125q0.28125 -0.4375 0.515625 -0.765625l1.171875 -1.625l1.40625 0l-2.390625 3.25l2.5625 3.65625l-1.4375 0l-1.421875 -2.140625l-0.375 -0.59375l-1.8125 2.734375l-1.421875 0zm9.9140625 -1.546875l0 -2.609375l-2.609375 0l0 -1.09375l2.609375 0l0 -2.59375l1.09375 0l0 2.59375l2.609375 0l0 1.09375l-2.609375 0l0 2.609375l-1.09375 0zm9.408417 1.546875l-1.171875 0l0 -7.46875q-0.421875 0.40625 -1.109375 0.8125q-0.6875 0.40625 -1.234375 0.609375l0 -1.140625q0.984375 -0.453125 1.71875 -1.109375q0.734375 -0.6718755 1.03125 -1.2812505l0.765625 0l0 9.578125z" fill-rule="nonzero"/><path fill="#000000" fill-opacity="0.0" d="m275.24146 18.430447l1.1968689 21.070866" fill-rule="evenodd"/><path stroke="#000000" stroke-width="1.0" stroke-linejoin="round" stroke-linecap="butt" d="m275.24146 18.430447l0.8565979 15.080521" fill-rule="evenodd"/><path fill="#000000" stroke="#000000" stroke-width="1.0" stroke-linecap="butt" d="m274.44897 33.604637l1.9064331 4.437126l1.3917236 -4.624466z" fill-rule="evenodd"/><path fill="#000000" fill-opacity="0.0" d="m205.78477 99.867455l55.181107 0l0 17.984253l-55.181107 0z" fill-rule="evenodd"/><path fill="#000000" d="m215.6754 113.4642l0 -1.359375l1.171875 0l0 1.359375l-1.171875 0zm0 8.1875l0 -6.90625l1.171875 0l0 6.90625l-1.171875 0zm2.945465 0l0 -6.90625l1.0625 0l0 0.984375q0.75 -1.140625 2.1875 -1.140625q0.625 0 1.15625 0.21875q0.53125 0.21875 0.78125 0.59375q0.265625 0.359375 0.375 0.859375q0.0625 0.328125 0.0625 1.140625l0 4.25l-1.171875 0l0 -4.203125q0 -0.71875 -0.140625 -1.0625q-0.140625 -0.359375 -0.484375 -0.5625q-0.34375 -0.21875 -0.8125 -0.21875q-0.75 0 -1.296875 0.46875q-0.546875 0.46875 -0.546875 1.796875l0 3.78125l-1.171875 0zm11.896851 0l0 -0.875q-0.65625 1.03125 -1.9375 1.03125q-0.8125 0 -1.515625 -0.453125q-0.6875 -0.453125 -1.078125 -1.265625q-0.375 -0.828125 -0.375 -1.890625q0 -1.03125 0.34375 -1.875q0.34375 -0.84375 1.03125 -1.28125q0.703125 -0.453125 1.546875 -0.453125q0.625 0 1.109375 0.265625q0.5 0.25 0.796875 0.671875l0 -3.421875l1.171875 0l0 9.546875l-1.09375 0zm-3.703125 -3.453125q0 1.328125 0.5625 1.984375q0.5625 0.65625 1.328125 0.65625q0.765625 0 1.296875 -0.625q0.53125 -0.625 0.53125 -1.90625q0 -1.421875 -0.546875 -2.078125q-0.546875 -0.671875 -1.34375 -0.671875q-0.78125 0 -1.3125 0.640625q-0.515625 0.625 -0.515625 2.0zm11.365601 1.234375l1.203125 0.140625q-0.28125 1.0625 -1.0625 1.65625q-0.765625 0.578125 -1.96875 0.578125q-1.515625 0 -2.40625 -0.9375q-0.890625 -0.9375 -0.890625 -2.609375q0 -1.75 0.890625 -2.703125q0.90625 -0.96875 2.34375 -0.96875q1.390625 0 2.265625 0.9375q0.875 0.9375 0.875 2.65625q0 0.109375 0 0.3125l-5.15625 0q0.0625 1.140625 0.640625 1.75q0.578125 0.59375 1.4375 0.59375q0.65625 0 1.109375 -0.328125q0.453125 -0.34375 0.71875 -1.078125zm-3.84375 -1.90625l3.859375 0q-0.078125 -0.859375 -0.4375 -1.296875q-0.5625 -0.6875 -1.453125 -0.6875q-0.8125 0 -1.359375 0.546875q-0.546875 0.53125 -0.609375 1.4375zm5.7406006 4.125l2.53125 -3.59375l-2.34375 -3.3125l1.46875 0l1.0625 1.609375q0.296875 0.46875 0.484375 0.78125q0.28125 -0.4375 0.515625 -0.765625l1.171875 -1.625l1.40625 0l-2.390625 3.25l2.5625 3.65625l-1.4375 0l-1.421875 -2.140625l-0.375 -0.59375l-1.8125 2.734375l-1.421875 0z" fill-rule="nonzero"/><path fill="#000000" fill-opacity="0.0" d="m234.56955 124.29265l1.1968536 21.070862" fill-rule="evenodd"/><path stroke="#000000" stroke-width="1.0" stroke-linejoin="round" stroke-linecap="butt" d="m234.56955 124.29265l0.8565979 15.080521" fill-rule="evenodd"/><path fill="#000000" stroke="#000000" stroke-width="1.0" stroke-linecap="butt" d="m233.77707 139.46684l1.9064331 4.4371185l1.3917236 -4.6244507z" fill-rule="evenodd"/><path fill="#000000" fill-opacity="0.0" d="m432.0971 70.71391l0 0c0 -24.552757 15.856873 -44.456696 35.417328 -44.456696l0 0c9.3932495 0 18.401794 4.683817 25.043823 13.021065c6.642029 8.337246 10.373505 19.644981 10.373505 31.43563l0 0c0 24.55275 -15.856873 44.456688 -35.417328 44.456688l0 0c-19.560455 0 -35.417328 -19.903938 -35.417328 -44.456688z" fill-rule="evenodd"/><path stroke="#ff0000" stroke-width="1.0" stroke-linejoin="round" stroke-linecap="butt" d="m432.0971 70.71391l0 0c0 -24.552757 15.856873 -44.456696 35.417328 -44.456696l0 0c9.3932495 0 18.401794 4.683817 25.043823 13.021065c6.642029 8.337246 10.373505 19.644981 10.373505 31.43563l0 0c0 24.55275 -15.856873 44.456688 -35.417328 44.456688l0 0c-19.560455 0 -35.417328 -19.903938 -35.417328 -44.456688z" fill-rule="evenodd"/><path fill="#000000" fill-opacity="0.0" d="m514.0525 109.291336l75.08661 0l0 39.40158l-75.08661 0z" fill-rule="evenodd"/><path fill="#000000" d="m523.8025 133.71384q1.0625 -1.25 2.8125 -4.5l1.0625 0.6875q-1.3125 2.625 -2.375 4.5q0.125 0.375 -0.1875 0.3125l-1.3125 -1.0zm11.3125 0.0625q0.25 0 0.25 -0.25l0 -1.375l-5.0 0l0 2.8125l-1.25 0l0 -7.5l7.5 0l0 6.625q0 0.875 -0.875 0.875l-1.25 0l-0.25 -1.1875l0.875 0zm-6.8125 -11.8125l3.875 0l0 -1.3125l1.1875 0q0.5 0.0625 0.0625 0.375l0 0.9375l3.9375 0l0 1.0l-3.9375 0l0 0.875l3.5 0l0 1.0l-3.5 0l0 0.8125l4.6875 0l0 1.0l-10.625 0l0 -1.0l4.6875 0l0 -0.8125l-3.4375 0l0 -1.0l3.4375 0l0 -0.875l-3.875 0l0 -1.0zm7.0625 8.3125l-5.0 0l0 0.875l5.0 0l0 -0.875zm0 -1.8125l-5.0 0l0 0.8125l5.0 0l0 -0.8125zm-9.75 -7.0q1.0 0.625 1.875 1.625l-0.9375 1.0q-1.0 -1.0 -1.875 -1.625l0.9375 -1.0zm-0.625 3.5625q1.125 0.6875 1.875 1.5l-0.875 1.0625q-0.875 -0.875 -1.875 -1.625l0.875 -0.9375zm28.0625 1.25q-0.4375 1.625 -1.625 1.625l-2.375 0q-1.1875 0 -1.1875 -1.1875l0 -3.0625l-2.0 0l0 0.75q0 2.8125 -4.125 4.25l-0.625 -1.1875q3.5 -1.0625 3.5 -3.0625l0 -0.75l-2.875 0l0 2.125l-1.4375 0l0 -3.3125l6.0 0l0 -1.75l1.375 0q0.5 0.0625 0.0625 0.375l0 1.375l6.0 0l0 2.9375l-1.4375 0l0 -1.75l-3.1875 0l0 2.625q0 0.4375 0.5625 0.4375l1.375 0q0.625 0 0.8125 -0.9375l1.1875 0.5zm0.9375 7.0l0 1.375l-13.875 0l0 -1.375l6.25 0l0 -2.6875l-4.75 0l0 -1.375l10.75 0l0 1.375l-4.75 0l0 2.6875l6.375 0z" fill-rule="nonzero"/><path fill="#000000" d="m564.24 122.52634l0 -1.625q0.75 0.0625 1.6875 0.125q-0.3125 0.4375 -0.375 1.5l2.3125 0q1.0625 0 1.875 -0.0625l0 1.125q-0.875 -0.0625 -1.875 -0.0625l-2.375 0l-0.125 1.375l3.1875 0q-0.0625 0.75 -0.0625 2.0l0 6.375q1.25 0 1.8125 -0.0625l0 1.125q-0.8125 -0.0625 -2.25 -0.0625l-5.875 0q-1.4375 0 -2.375 0.0625l0 -1.125q0.5625 0.0625 1.75 0.0625l0 -6.375q0 -1.1875 -0.0625 -2.0l2.5625 0l0.125 -1.375l-1.125 0q-1.5625 0 -2.4375 0.0625l0 -1.125q0.8125 0.0625 2.4375 0.0625l1.1875 0zm-3.625 -1.125q-0.5 0.5625 -1.4375 2.875l0 8.25q0 1.3125 0.0625 2.5l-1.3125 0q0.0625 -1.0625 0.0625 -2.3125l0 -6.4375q-0.75 1.25 -1.375 2.0q-0.5 -0.6875 -0.9375 -1.0625q0.625 -0.625 1.71875 -2.40625q1.09375 -1.78125 1.71875 -4.03125q0.875 0.4375 1.5 0.625zm6.75 5.625l0 -1.25l-4.625 0l0 1.25l4.625 0zm0 6.25l0 -1.1875l-4.625 0l0 1.1875l4.625 0zm0 -2.125l0 -1.125l-4.625 0l0 1.125l4.625 0zm0 -2.0625l0 -1.125l-4.625 0l0 1.125l4.625 0z" fill-rule="nonzero"/><path fill="#000000" fill-opacity="0.0" d="m523.76904 117.00787l-21.637817 -17.51181" fill-rule="evenodd"/><path stroke="#000000" stroke-width="1.0" stroke-linejoin="round" stroke-linecap="butt" d="m523.76904 117.00787l-16.973846 -13.7372055" fill-rule="evenodd"/><path fill="#000000" stroke="#000000" stroke-width="1.0" stroke-linecap="butt" d="m507.8343 101.98673l-4.566681 -1.5709839l2.4884644 4.1388474z" fill-rule="evenodd"/></g></svg>